<svg id="Grupo_2558" data-name="Grupo 2558" xmlns="http://www.w3.org/2000/svg" xmlns:xlink="http://www.w3.org/1999/xlink" width="594.002" height="599.357" viewBox="0 0 594.002 599.357">
  <defs>
    <linearGradient id="linear-gradient" y1="0.5" x2="1" y2="0.5" gradientUnits="objectBoundingBox">
      <stop offset="0" stop-color="#dae3fe"/>
      <stop offset="1" stop-color="#e9effd"/>
    </linearGradient>
    <linearGradient id="linear-gradient-2" x1="1" y1="0.5" x2="0" y2="0.5" xlink:href="#linear-gradient"/>
  </defs>
  <g id="Grupo_2541" data-name="Grupo 2541" transform="translate(0 29.582)">
    <path id="Caminho_710" data-name="Caminho 710" d="M474.713,138.685a232.444,232.444,0,0,1-6.543,96.544,96.427,96.427,0,0,1-24,40.832C436.963,283.365,429.5,291.1,421.7,297.3c-6.557,5.217-14.513,8.265-21.414,13.125-14.446,10.176-27.951,22.678-43.115,31.067-25.159,13.919-53.383,15.23-79.973,8.584-27.681-6.92-52.59-21.523-77.61-38.094-9.646-6.389-19.343-12.988-29.838-16.405-8.27-2.693-16.852-3.343-25.375-3.389-18.23-.1-36.19,4.411-54.289,6.572-21.748,2.6-46.925-7.062-61.551-29.544A69.337,69.337,0,0,1,17.8,229.448c.629-14.8,2.322-30.635,6.236-44.656,3.032-10.86,7.126-24.626,12.48-33.85,1.285-2.213-36,24.2-36.407,22.518-1.595-6.916,14.829-32.388,11.756-47.487C7.546,104.753,23.972,47.949,34.83,26.794,51.006-4.723,79.221.292,104.547.292H390.226c14.9,0,29.265,7.081,40.283,19.873l.173.2c11.3,13.126,22.6,27.338,28.947,45.559,3.843,11.036,4.958,22.264,7.55,33.588C470.218,112.792,472.822,125.657,474.713,138.685Z" transform="matrix(0.799, -0.602, 0.602, 0.799, 0, 287.094)" fill="url(#linear-gradient)"/>
    <g id="Grupo_2469" data-name="Grupo 2469" transform="translate(48.796 66.617)">
      <g id="Illustration" transform="translate(0 0)">
        <g id="Grupo_2435" data-name="Grupo 2435" transform="translate(0 0)">
          <g id="Grupo_2430" data-name="Grupo 2430" transform="translate(227.898)">
            <g id="Grupo_2427" data-name="Grupo 2427">
              <path id="Caminho_607" data-name="Caminho 607" d="M496.39,461.319c6.326-29.743,21.894-54.517,41.728-70.166a88.566,88.566,0,0,0,22.6-26.628,83.247,83.247,0,0,0,9.729-29.752q.45-3.5,1.2-7.048c7.608-35.771,35.964-60.165,63.336-54.486s43.394,39.282,35.786,75.054a84.9,84.9,0,0,1-7.085,20.353c-9.912,19.79-12.264,42.556-5.731,63.681,5.838,18.878,6.991,40.685,2.248,62.984-7.073,33.258-25.7,60.3-48.93,75.328a85.531,85.531,0,0,0-22.631,21.313c-10.2,13.97-25.793,21.635-41.161,18.446-16.578-3.44-28.251-18.548-30.885-37.291A89.837,89.837,0,0,0,506.4,542.871C494.32,520.567,489.994,491.391,496.39,461.319Z" transform="translate(-493.444 -272.418)" fill="#91b3fa"/>
              <path id="Caminho_608" data-name="Caminho 608" d="M736.1,385.891c-8.6,22.843-16.456,45.94-24.063,69.117-1.9,5.793-3.714,11.616-5.542,17.434l-2.742,8.726-2.668,8.749c-1.755,5.839-3.592,11.655-5.281,17.514l-5.066,17.576c-3.225,11.76-6.552,23.492-9.555,35.311-1.51,5.907-3.137,11.784-4.525,17.721l-4.247,17.789c-5.42,23.774-10.236,47.693-13.815,71.806l1.053.162,3.374-17.94.834-4.485.947-4.465,1.911-8.925,1.894-8.927c.625-2.976,1.364-5.93,2.04-8.9,1.393-5.924,2.738-11.858,4.17-17.773C680.7,572.76,686.907,549.213,693.6,525.8c3.438-11.684,6.774-23.4,10.294-35.056l2.616-8.752,2.69-8.731c1.79-5.822,3.581-11.643,5.43-17.447q5.4-17.457,11.063-34.836c3.718-11.6,7.548-23.176,11.413-34.73Z" transform="translate(-600.56 -353.635)" fill="#bdd0fb"/>
              <g id="Grupo_2426" data-name="Grupo 2426" transform="translate(142.24 15.714)" opacity="0.5">
                <path id="Caminho_609" data-name="Caminho 609" d="M533.054,411.142a.9.9,0,0,0,.622-.449c16.141-29.288,13.541-51.321,8.518-64.647-5.457-14.477-14.624-21.886-15.012-22.195a.9.9,0,0,0-1.119,1.4,53.606,53.606,0,0,1,14.484,21.513c4.86,12.958,7.34,34.417-8.444,63.057a.9.9,0,0,0,.951,1.316Z" transform="translate(-525.726 -323.656)" fill="#bdd0fb"/>
              </g>
            </g>
            <g id="Grupo_2429" data-name="Grupo 2429" transform="translate(125.17 160.941)">
              <path id="Caminho_610" data-name="Caminho 610" d="M200.246,748.94c11.236-15.215,26.341-25.263,41.46-29.062A53.768,53.768,0,0,0,274.35,696.22q1.159-1.867,2.5-3.681c13.514-18.3,35.653-24.873,49.449-14.684s14.026,33.282.513,51.581a53.38,53.38,0,0,1-9.227,9.709,54.043,54.043,0,0,0-19.7,34.567,79.276,79.276,0,0,1-15.068,36.206C270.251,826.93,252.85,837.484,236,840.064a52.852,52.852,0,0,0-18.147,6.291c-9.309,5.3-19.994,5.666-27.74-.054-8.356-6.171-10.953-17.693-7.565-28.968a56.42,56.42,0,0,0,2.148-19.7C183.739,781.932,188.886,764.323,200.246,748.94Z" transform="translate(-181.106 -673.058)" fill="#bdd0fb"/>
              <path id="Caminho_611" data-name="Caminho 611" d="M386.371,735.943c-10.734,10.763-21.114,21.861-31.378,33.067-2.567,2.8-5.089,5.642-7.62,8.475l-3.8,4.25-3.761,4.282c-2.5,2.864-5.032,5.694-7.5,8.587l-7.392,8.677c-4.854,5.848-9.758,11.654-14.5,17.591-2.377,2.965-4.811,5.884-7.128,8.9l-6.991,9.006c-9.2,12.1-18.1,24.44-26.359,37.2l.545.36,6.543-9.315,1.63-2.332,1.688-2.291,3.384-4.575,3.376-4.58c1.122-1.529,2.3-3.016,3.449-4.526,2.316-3.005,4.608-6.028,6.943-9.017q14.129-17.848,28.813-35.248c4.953-5.75,9.856-11.542,14.849-17.259l3.733-4.3,3.769-4.266c2.511-2.846,5.022-5.691,7.561-8.511q7.546-8.525,15.221-16.938,7.633-8.45,15.389-16.789Z" transform="translate(-260.388 -715.247)" fill="url(#linear-gradient-2)"/>
              <g id="Grupo_2428" data-name="Grupo 2428" transform="translate(122.03 11.807)" opacity="0.5">
                <path id="Caminho_612" data-name="Caminho 612" d="M205.481,761.756a.587.587,0,0,0,.5-.072c18.264-12.106,23.444-25.689,24.573-34.953a35.6,35.6,0,0,0-1.979-17.445.588.588,0,0,0-1.076.476,35.122,35.122,0,0,1,1.879,16.889c-1.112,9-6.187,22.213-24.047,34.052a.589.589,0,0,0,.152,1.053Z" transform="translate(-205.065 -708.935)" fill="url(#linear-gradient-2)"/>
              </g>
            </g>
          </g>
          <g id="Grupo_2434" data-name="Grupo 2434" transform="translate(0 13.526)">
            <g id="Grupo_2431" data-name="Grupo 2431" transform="translate(48.773)">
              <path id="Caminho_613" data-name="Caminho 613" d="M1724.147,515.268c-5.712-26.823-19.771-49.165-37.681-63.278a77.545,77.545,0,0,1-29.194-50.844q-.406-3.159-1.084-6.357c-6.87-32.259-32.477-54.258-57.194-49.136s-39.186,35.425-32.316,67.684a76.5,76.5,0,0,0,6.4,18.354,77.187,77.187,0,0,1,5.176,57.429c-5.273,17.025-6.313,36.691-2.031,56.8,6.387,29.992,23.21,54.384,44.184,67.932a77.177,77.177,0,0,1,20.436,19.22c9.21,12.6,23.292,19.51,37.169,16.634,14.97-3.1,25.512-16.726,27.89-33.629a80.948,80.948,0,0,1,9.206-27.266C1726.017,568.7,1729.923,542.388,1724.147,515.268Z" transform="translate(-1564.969 -344.914)" fill="#bdd0fb"/>
              <path id="Caminho_614" data-name="Caminho 614" d="M1693.084,447.382c7.769,20.594,14.86,41.418,21.729,62.314,1.719,5.223,3.353,10.473,5,15.718l2.476,7.867,2.409,7.888c1.585,5.265,3.244,10.508,4.768,15.79l4.575,15.846c2.913,10.6,5.917,21.18,8.629,31.836,1.363,5.326,2.833,10.624,4.086,15.977l3.836,16.038c4.895,21.434,9.243,43,12.475,64.739l-.951.146-3.047-16.175-.752-4.044-.856-4.025-1.726-8.047-1.71-8.048c-.565-2.684-1.231-5.347-1.843-8.021-1.258-5.341-2.473-10.691-3.766-16.023-5.313-21.3-10.913-42.528-16.958-63.641-3.1-10.534-6.116-21.092-9.3-31.605l-2.362-7.891-2.429-7.872c-1.616-5.249-3.233-10.5-4.9-15.73q-4.875-15.739-9.99-31.408c-3.358-10.462-6.816-20.894-10.306-31.312Z" transform="translate(-1643.097 -413.66)" fill="url(#linear-gradient-2)"/>
              <path id="Caminho_615" data-name="Caminho 615" d="M1983.583,470.185a.81.81,0,0,1-.562-.406c-14.575-26.448-12.227-46.344-7.692-58.378,4.928-13.073,13.206-19.764,13.556-20.043a.811.811,0,0,1,1.01,1.269,48.405,48.405,0,0,0-13.078,19.427c-4.389,11.7-6.629,31.079,7.624,56.942a.811.811,0,0,1-.858,1.189Z" transform="translate(-1962.27 -375.955)" fill="url(#linear-gradient-2)"/>
            </g>
            <g id="Grupo_2432" data-name="Grupo 2432" transform="translate(0 150.555)">
              <path id="Caminho_616" data-name="Caminho 616" d="M1970.963,869.35c-10.607-14.363-24.867-23.85-39.139-27.436a50.756,50.756,0,0,1-30.817-22.334q-1.094-1.762-2.358-3.475c-12.756-17.274-33.657-23.481-46.681-13.862s-13.241,31.419-.484,48.694a50.405,50.405,0,0,0,8.71,9.165,51.019,51.019,0,0,1,18.6,32.632,74.832,74.832,0,0,0,14.224,34.18c11.861,16.061,28.288,26.024,44.194,28.46a49.88,49.88,0,0,1,17.131,5.938c8.788,5.008,18.875,5.349,26.187-.051,7.888-5.825,10.339-16.7,7.141-27.346a53.275,53.275,0,0,1-2.028-18.6C1986.547,900.494,1981.688,883.872,1970.963,869.35Z" transform="translate(-1842.057 -797.714)" fill="#91b3fa"/>
              <path id="Caminho_617" data-name="Caminho 617" d="M1869.921,857.08c10.133,10.16,19.932,20.637,29.622,31.216,2.423,2.644,4.8,5.326,7.195,8l3.583,4.012,3.551,4.042c2.356,2.7,4.75,5.376,7.076,8.107l6.978,8.192c4.582,5.52,9.212,11,13.691,16.607,2.244,2.8,4.542,5.554,6.729,8.4l6.6,8.5c8.685,11.424,17.087,23.072,24.885,35.121l-.515.34-6.177-8.793-1.539-2.2L1970,976.463l-3.2-4.319-3.187-4.324c-1.059-1.443-2.173-2.847-3.256-4.273-2.187-2.837-4.351-5.69-6.555-8.512q-13.337-16.849-27.2-33.275c-4.676-5.428-9.3-10.9-14.018-16.293l-3.524-4.056-3.558-4.027c-2.37-2.686-4.741-5.372-7.138-8.035q-7.123-8.048-14.369-15.99-7.205-7.977-14.527-15.849Z" transform="translate(-1841.878 -837.543)" fill="#bdd0fb"/>
              <path id="Caminho_618" data-name="Caminho 618" d="M2216.047,881.448a.554.554,0,0,1-.469-.068c-17.242-11.429-22.132-24.252-23.2-33a33.6,33.6,0,0,1,1.868-16.469.555.555,0,0,1,1.015.45,33.169,33.169,0,0,0-1.773,15.944c1.049,8.5,5.84,20.97,22.7,32.146a.556.556,0,0,1-.144.994Z" transform="translate(-2184.663 -820.438)" fill="#bdd0fb"/>
            </g>
          </g>
        </g>
      </g>
    </g>
    <path id="Caminho_875" data-name="Caminho 875" d="M294.236,246.631s-5.542-2.443-13.155-11.205c-3.432-3.966-8.118-18.158-17.052-19-7.256-.684-13.833-.481-18.514-2.436-10.046-4.179-9.257-16.823-9.257-19.975s5.846-18.514,5.846-18.514l11.206-12.667,10.718,6.821V175.5l11.206,18.514v6.334l8.282,16.078s8.77,18.027,10.719,19S294.236,246.631,294.236,246.631Z" transform="translate(-138.938 214.186)" fill="#dbe3fe"/>
  </g>
  <g id="Grupo_2540" data-name="Grupo 2540" transform="translate(161.646)">
    <g id="Grupo_2533" data-name="Grupo 2533" transform="translate(120.053 456.938)">
      <path id="Caminho_832" data-name="Caminho 832" d="M626.768,3163.373a2.426,2.426,0,0,1,.083-.8c4.651-15.813,29.429-25.867,29.429-25.867l9.93.521c6.045,13.844,5.523,22.374,4.7,26.178a3.079,3.079,0,0,1-.094.312A298.2,298.2,0,0,1,626.768,3163.373Z" transform="translate(-626.765 -3136.707)" fill="#070043"/>
      <path id="Caminho_833" data-name="Caminho 833" d="M672.709,3223.349a3.868,3.868,0,0,1-3.084,2.535c-11.586,2.039-30.116.658-37.9-.071a3.2,3.2,0,0,1-3.064-2.809A298.114,298.114,0,0,0,672.709,3223.349Z" transform="translate(-628.658 -3196.339)" fill="#070043"/>
    </g>
    <g id="Grupo_2534" data-name="Grupo 2534" transform="translate(56.62 455.972)">
      <path id="Caminho_834" data-name="Caminho 834" d="M844.346,3209.52c8.811-.247,13.368-1.284,15.724-2.248.005.875,0,1.768-.028,2.691a1.739,1.739,0,0,1-1.66,1.769l-48.377-.312a2.209,2.209,0,0,1-1.777-3.216C814.571,3208.729,830.726,3209.9,844.346,3209.52Z" transform="translate(-808.005 -3184.502)" fill="#070043"/>
      <path id="Caminho_835" data-name="Caminho 835" d="M808.011,3157.283a2.269,2.269,0,0,1,.191-.365c4.273-5.97,15.154-17.857,36.656-23.012l10.315-.325s4.594,7.983,4.68,22.771c-2.356.963-6.913,2-15.724,2.247C830.509,3158.979,814.354,3157.807,808.011,3157.283Z" transform="translate(-807.787 -3133.58)" fill="#070043"/>
    </g>
    <path id="Caminho_836" data-name="Caminho 836" d="M599.386,2345.834s-21.753,121.373-21.3,240.355c.008,2.169,15.82,5.046,16.162,3.042,3.488-20.458,26.614-153.624,38.02-172.334,0,0,4.633,117.867,2.234,171.121-.06,1.323,14.727,3.427,14.948,1.89,2.485-17.314,19.206-137.753,18.6-211.992-.034-4.187-3.913-39.064-3.913-39.064C639.559,2343.114,620.835,2350.552,599.386,2345.834Z" transform="translate(-488.327 -2128.448)" fill="#1a0f91"/>
    <path id="Caminho_837" data-name="Caminho 837" d="M677.791,1975.861c14.343-31.624,15.869-53.839,0-63.285a23.8,23.8,0,0,0-2.889-.553c-5.054-.642-12.046-1.529-20.1-2.592a.32.32,0,0,1-.07-.012,257.119,257.119,0,0,0-34.772-4.785c-16.808-1.051-34.877.082-42.172,8.322a119.449,119.449,0,0,1-14.406,24.794c-13.508,17.728-20.142,37.485-27.157,33.633-1.917-1.049-3.335-8.1-4.8-11.3-5.114.609-15.284,2.15-23.212,10.607,5.858,31.87,25.271,45.044,72.846,5.911,9.035,25.551,18.985,57.833,15.752,81.259a4.157,4.157,0,0,0,3.35,4.428c10.832,1.611,45.221,5.729,61.994-.994.98-.385,3.693-.914,3.693-1.977a231.472,231.472,0,0,1,10.773-78.9C677.082,1978.926,677.476,1977.405,677.791,1975.861Z" transform="translate(-487.803 -1828.176)" fill="#4f52ff"/>
    <path id="Caminho_838" data-name="Caminho 838" d="M666.3,1820.572l3.234,33.039s-18.587,5.6-32.105-3.94l9.5-30.028Z" transform="translate(-508.14 -1769.675)" fill="#daaead"/>
    <g id="Grupo_2535" data-name="Grupo 2535" transform="translate(119.025 4.865)">
      <path id="Caminho_839" data-name="Caminho 839" d="M658.445,1723.405c-.221.573-1.155,41.181-1.155,41.181l23.2.041,6.6-38.356S662.141,1713.807,658.445,1723.405Z" transform="translate(-650.858 -1705.529)" fill="#daaead"/>
      <path id="Caminho_840" data-name="Caminho 840" d="M640.917,1699.211a3.339,3.339,0,0,1,1.042,2.746l-1.868,20.168a3.238,3.238,0,0,1-.207.889c-.618,1.578-2.988,6.443-7.925,3.743-4.208-2.3-8.107-4.357-11.274-4.456a3.33,3.33,0,0,0-3.41,3.281,124.3,124.3,0,0,0,.9,18.334,3.316,3.316,0,0,0,3.5,2.83c4.555-.287,13.433-1.115,20.563-3.406a3.333,3.333,0,0,0,2.26-2.572c.983-5.324,3.8-20.235,5.241-24.322,1.34-3.8,6.55-5.111,8.983-5.524a3.353,3.353,0,0,0,2.248-1.468c1.541-2.349,3.763-7.423-2.347-11.267a3.336,3.336,0,0,1-1.033-4.53c1.656-2.757,2.847-7.011-1.984-10.651-4.891-3.685-9.629-1.949-12.531-.091a3.459,3.459,0,0,1-4.147-.247,2.2,2.2,0,0,0-2.136-.476c-4.777,1.209-3.951-5.459-6.405-7.541-3.44-2.917-7.162,1.328-8.551,4.46-.771,1.737-1.316,3.572-2.16,5.275a16.62,16.62,0,0,1-5.893,6.571,2.646,2.646,0,0,0-1.009.9,1.649,1.649,0,0,0,.351,1.794,4.476,4.476,0,0,0,1.64,1.017,20.8,20.8,0,0,0,15.121.6C634.338,1693.787,638.841,1697.262,640.917,1699.211Z" transform="translate(-612.634 -1673.674)" fill="#0a0160"/>
      <path id="Caminho_841" data-name="Caminho 841" d="M619.086,1803.033s-.413-11.972,4.4-13.807,10.664,1.024,7.422,8.957C626.874,1808.051,619.086,1803.033,619.086,1803.033Z" transform="translate(-583.8 -1753.152)" fill="#daaead"/>
    </g>
    <g id="Grupo_2537" data-name="Grupo 2537" transform="translate(101.395 0)">
      <g id="Grupo_2536" data-name="Grupo 2536" transform="translate(17.811 0)">
        <path id="Caminho_842" data-name="Caminho 842" d="M611.468,1679.776c7.167-37.663,60.664-21.934,48.389,11.715C641.333,1686.005,619.277,1676.16,611.468,1679.776Z" transform="translate(-611.468 -1657.931)" fill="#1a0f91"/>
      </g>
      <path id="Caminho_843" data-name="Caminho 843" d="M721.465,1729.86l-31.078,8.532a2.324,2.324,0,0,1-2.226-.564,21.787,21.787,0,0,0-14.888-6.248.651.651,0,0,1-.2-1.259l18.478-7.1a.528.528,0,0,1,.063-.019c9.629-2.174,19.7.919,29.926,5.886A.414.414,0,0,1,721.465,1729.86Z" transform="translate(-672.65 -1702.547)" fill="#4f52ff"/>
    </g>
    <g id="Grupo_2538" data-name="Grupo 2538" transform="translate(2.392 84.94)">
      <path id="Caminho_844" data-name="Caminho 844" d="M747.213,2041.614a16.678,16.678,0,0,0,16.995-16.674v-74.207a17.779,17.779,0,0,0-17.584-17.788c-29.259-.319-89.605-.334-138.981,3.826a13.366,13.366,0,0,0-12.223,12.848l-4.615,71.742a16.988,16.988,0,0,0,16.653,17.6Z" transform="translate(-590.793 -1932.82)" fill="#fab751"/>
      <path id="Caminho_845" data-name="Caminho 845" d="M861.3,1996.783l-20.087,2.167a4.528,4.528,0,0,1-5-4.834l4.391-59.751c8.42-.267,16.726-.462,24.74-.6v58.515A4.529,4.529,0,0,1,861.3,1996.783Z" transform="translate(-767.765 -1933.474)" fill="#fff" opacity="0.37"/>
      <path id="Caminho_846" data-name="Caminho 846" d="M870.1,1986.839a2.02,2.02,0,0,1-2.015,1.9c-.04,0-.079,0-.119,0a2.019,2.019,0,0,1-1.9-2.134l3.029-52.148c1.358-.034,2.705-.064,4.052-.094Z" transform="translate(-784.797 -1933.885)" fill="#fff"/>
    </g>
    <g id="Grupo_2539" data-name="Grupo 2539" transform="translate(67.264 83.164)">
      <path id="Caminho_847" data-name="Caminho 847" d="M630.63,2221.967c-3.622-5.046-.9-8.409-.9-8.409,18.277-6.526,44.471-6.011,64.329-30.934,8.067,4.276,1.55,6.817,10.391,19.679C662.857,2229.069,630.63,2221.967,630.63,2221.967Z" transform="translate(-607.633 -2103.66)" fill="#daaead"/>
      <path id="Caminho_848" data-name="Caminho 848" d="M542.439,1951.686c-.258,29.969-9.695,52.808-54.653,76.063L496.97,2042c21.888-2.038,60.407-31.255,72.033-52.943,2.868-5.349,6.831-22.185,6.255-34.044C574.073,1930.606,548.936,1908.316,542.439,1951.686Z" transform="translate(-434.944 -1927.073)" fill="#1a0f91"/>
      <path id="Caminho_849" data-name="Caminho 849" d="M884.089,2285.915c-10.978,4.053-18.5-2.534-23.4-9.659,10.255-1.175,16.7-1.318,25.143.381Z" transform="translate(-860.694 -2167.746)" fill="#daaead"/>
    </g>
    <path id="Caminho_850" data-name="Caminho 850" d="M1124.3,2047.3c2.79-.684,9.056-9.162,9.723-6.064s-1.223,7.025-.943,8.342,2.383,8.7.712,11.791c-1.207,2.234-3.574,9.26-4.8,13-.407,1.24-.737,2.879-2.035,2.733s-2.3-1.892-2.424-3.193C1124.484,2073.387,1121.506,2047.985,1124.3,2047.3Z" transform="translate(-1123.104 -1922.327)" fill="#daaead"/>
  </g>
</svg>
