<svg id="Grupo_233" data-name="Grupo 233" xmlns="http://www.w3.org/2000/svg" xmlns:xlink="http://www.w3.org/1999/xlink" width="23.426" height="21.69" viewBox="0 0 23.426 21.69">
  <defs>
    <clipPath id="clip-path">
      <rect id="Retângulo_34" data-name="Retângulo 34" width="23.426" height="21.69" fill="#fff"/>
    </clipPath>
  </defs>
  <g id="Grupo_232" data-name="Grupo 232" transform="translate(0 0)">
    <g id="Grupo_231" data-name="Grupo 231" clip-path="url(#clip-path)">
      <path id="Caminho_66" data-name="Caminho 66" d="M389.285,376.087a.351.351,0,0,0-.378-.054l-22.7,10.549a.35.35,0,0,0-.007.631l6.425,3.153a.349.349,0,0,0,.363-.034l6.247-4.669-4.9,5.045a.35.35,0,0,0-.1.271l.489,6.359a.35.35,0,0,0,.239.306.357.357,0,0,0,.109.017.35.35,0,0,0,.265-.121l3.41-3.952,4.216,2.015a.35.35,0,0,0,.484-.211l5.946-18.937a.35.35,0,0,0-.1-.368Zm0,0" transform="translate(-366 -376.001)" fill="#fff"/>
    </g>
  </g>
</svg>
