<svg xmlns="http://www.w3.org/2000/svg" width="24.041" height="24.041" viewBox="0 0 24.041 24.041">
  <g id="Grupo_2858" data-name="Grupo 2858" transform="translate(29 -25)">
    <path id="Caminho_1661" data-name="Caminho 1661" d="M149.5,26.65l-4.709,4.709a5.688,5.688,0,0,0,0,7.969,5.362,5.362,0,0,0,1.133.86l.86-.86a1.935,1.935,0,0,0,.355-1.7,2.72,2.72,0,0,1-.355-.294,2.848,2.848,0,0,1,0-3.984l4.709-4.709a2.817,2.817,0,0,1,3.984,3.984l-3.113,3.113a8.109,8.109,0,0,1,.352,3.624c.014-.013.03-.022.043-.035l4.709-4.709A5.635,5.635,0,0,0,149.5,26.65Z" transform="translate(-164.075)" fill="#b3b3b3"/>
    <path id="Caminho_1662" data-name="Caminho 1662" d="M-19.381,219.678l5.074-5.074a5.685,5.685,0,0,0,0-7.969,5.363,5.363,0,0,0-1.133-.86l-.86.86a1.935,1.935,0,0,0-.355,1.7,2.712,2.712,0,0,1,.355.294,2.848,2.848,0,0,1,0,3.984l-5.074,5.074a2.82,2.82,0,0,1-3.984,0,2.82,2.82,0,0,1,0-3.984l3.478-3.478a8.108,8.108,0,0,1-.352-3.624c-.014.013-.03.022-.043.035l-5.074,5.074a5.635,5.635,0,0,0,0,7.969A5.635,5.635,0,0,0-19.381,219.678Z" transform="translate(0 -172.288)" fill="#b3b3b3"/>
  </g>
</svg>
