<svg xmlns="http://www.w3.org/2000/svg" xmlns:xlink="http://www.w3.org/1999/xlink" width="1344.003" height="599.041" viewBox="0 0 1344.003 599.041">
  <defs>
    <linearGradient id="linear-gradient" y1="0.5" x2="1" y2="0.5" gradientUnits="objectBoundingBox">
      <stop offset="0" stop-color="#dae3fe"/>
      <stop offset="1" stop-color="#e9effd"/>
    </linearGradient>
  </defs>
  <g id="Grupo_2666" data-name="Grupo 2666" transform="translate(-530.217 -326.446)">
    <g id="Grupo_2664" data-name="Grupo 2664" transform="translate(530.217 326.446)">
      <g id="Grupo_2541" data-name="Grupo 2541" transform="translate(0 0)">
        <path id="Caminho_710" data-name="Caminho 710" d="M125.924,363.257c7.618-47.353,3.837-98.243-10.766-143.352a141.008,141.008,0,0,0-39.486-60.629C63.812,148.429,51.525,136.94,38.7,127.733c-10.789-7.746-23.879-12.272-35.233-19.489C-20.3,93.135-42.522,74.571-67.473,62.114c-41.4-20.667-87.835-22.615-131.585-12.745-45.545,10.275-86.53,31.958-127.7,56.564-15.872,9.487-31.827,19.286-49.094,24.359-13.608,4-27.728,4.963-41.751,5.032-30,.146-59.547-6.55-89.326-9.758-35.784-3.856-77.209,10.485-101.274,43.869a95.517,95.517,0,0,0-17.665,59.054c1.035,21.982,3.82,45.488,10.26,66.308,4.988,16.126,11.725,36.565,20.535,50.261,2.113,3.286-59.235-35.928-59.9-33.435-2.625,10.269,24.4,48.091,19.342,70.511-7.107,31.508,19.921,115.852,37.787,147.265,26.615,46.8,73.039,39.35,114.709,39.35H-13.089c24.513,0,48.152-10.514,66.281-29.509l.284-.3c18.6-19.489,37.19-40.593,47.63-67.647,6.323-16.386,8.158-33.059,12.422-49.872C118.528,401.7,122.812,382.6,125.924,363.257Z" transform="translate(886.696 -26.905)" fill="url(#linear-gradient)"/>
        <g id="Grupo_2469" data-name="Grupo 2469" transform="translate(0 0)">
          <g id="Illustration">
            <g id="Grupo_2435" data-name="Grupo 2435" transform="translate(230.101)">
              <g id="Grupo_2430" data-name="Grupo 2430" transform="translate(0)">
                <g id="Grupo_2427" data-name="Grupo 2427" transform="translate(159.121)">
                  <path id="Caminho_607" data-name="Caminho 607" d="M769.4,571.813c-9.9-47.141-34.276-86.406-65.326-111.209a136.707,136.707,0,0,1-50.612-89.358q-.7-5.551-1.881-11.171c-11.91-56.695-56.3-95.358-99.154-86.356S484.5,335.98,496.406,392.674A135.677,135.677,0,0,0,507.5,424.932c15.517,31.365,19.2,67.448,8.971,100.929-9.14,29.921-10.944,64.483-3.519,99.826,11.073,52.712,40.238,95.578,76.6,119.389a134.583,134.583,0,0,1,35.429,33.78c15.967,22.142,40.381,34.289,64.438,29.235,25.953-5.453,44.228-29.4,48.352-59.1a143.59,143.59,0,0,1,15.959-47.92C772.644,665.716,779.416,619.476,769.4,571.813Z" transform="translate(-493.444 -272.419)" fill="#91b3fa"/>
                  <path id="Caminho_608" data-name="Caminho 608" d="M660.171,385.891c13.469,36.294,25.761,72.99,37.67,109.816,2.981,9.2,5.814,18.457,8.677,27.7l4.292,13.864,4.177,13.9c2.748,9.277,5.624,18.518,8.266,27.827l7.932,27.926c5.049,18.684,10.257,37.325,14.958,56.1,2.364,9.385,4.911,18.722,7.084,28.156l6.649,28.264c8.485,37.773,16.024,75.777,21.626,114.088l-1.648.258-5.283-28.5-1.305-7.126-1.482-7.094-2.992-14.181L765.827,762.7c-.979-4.729-2.135-9.423-3.194-14.136-2.18-9.413-4.286-18.841-6.528-28.238-9.21-37.534-18.919-74.946-29.4-112.153-5.382-18.563-10.6-37.171-16.116-55.7l-4.1-13.906L702.284,524.7c-2.8-9.25-5.606-18.5-8.5-27.721q-8.451-27.737-17.319-55.349-8.73-27.654-17.867-55.181Z" transform="translate(-517.796 -329.227)" fill="#bdd0fb"/>
                  <g id="Grupo_2426" data-name="Grupo 2426" transform="translate(72.345 24.6)" opacity="0.5">
                    <path id="Caminho_609" data-name="Caminho 609" d="M546.044,460.618a1.4,1.4,0,0,1-.974-.7c-25.269-45.851-21.2-80.344-13.335-101.207,8.543-22.664,22.894-34.264,23.5-34.746a1.405,1.405,0,0,1,1.751,2.2c-.143.114-14.427,11.689-22.675,33.68-7.607,20.287-11.49,53.88,13.219,98.717a1.406,1.406,0,0,1-1.488,2.061Z" transform="translate(-525.726 -323.656)" fill="#bdd0fb"/>
                  </g>
                </g>
                <g id="Grupo_2429" data-name="Grupo 2429" transform="translate(0 258.531)">
                  <path id="Caminho_610" data-name="Caminho 610" d="M394.876,791.854c-17.591-23.82-41.237-39.55-64.906-45.5a84.177,84.177,0,0,1-51.1-37.037q-1.814-2.923-3.908-5.763c-21.156-28.647-55.815-38.939-77.414-22.989s-21.958,52.1-.8,80.751a83.566,83.566,0,0,0,14.444,15.2,84.606,84.606,0,0,1,30.839,54.115c2.56,19.05,10.4,38.823,23.589,56.682,19.669,26.634,46.91,43.156,73.288,47.2a82.734,82.734,0,0,1,28.409,9.848c14.574,8.3,31.3,8.87,43.428-.084,13.081-9.661,17.146-27.7,11.842-45.35a88.32,88.32,0,0,1-3.363-30.846C420.719,843.5,412.661,815.936,394.876,791.854Z" transform="translate(-181.106 -673.058)" fill="#bdd0fb"/>
                  <path id="Caminho_611" data-name="Caminho 611" d="M270.681,735.943c16.8,16.849,33.054,34.224,49.123,51.767,4.019,4.384,7.968,8.832,11.93,13.267l5.943,6.654,5.888,6.7c3.908,4.484,7.878,8.914,11.734,13.443l11.572,13.584c7.6,9.155,15.276,18.244,22.706,27.54,3.721,4.642,7.532,9.211,11.158,13.929l10.944,14.1c14.4,18.945,28.335,38.261,41.266,58.243l-.854.564-10.243-14.582-2.552-3.65-2.643-3.586-5.3-7.163-5.285-7.17c-1.757-2.393-3.6-4.721-5.4-7.085-3.626-4.7-7.214-9.436-10.87-14.117q-22.119-27.942-45.107-55.181c-7.754-9-15.43-18.07-23.246-27.019l-5.844-6.727-5.9-6.678c-3.931-4.455-7.862-8.91-11.837-13.325q-11.814-13.346-23.828-26.517-11.949-13.229-24.091-26.283Z" transform="translate(-224.176 -703.544)" fill="url(#linear-gradient)"/>
                  <g id="Grupo_2428" data-name="Grupo 2428" transform="translate(12.344 18.485)" opacity="0.5">
                    <path id="Caminho_612" data-name="Caminho 612" d="M244.765,791.627a.919.919,0,0,1-.779-.113c-28.593-18.953-36.7-40.217-38.469-54.719-1.92-15.754,2.892-26.846,3.1-27.311a.921.921,0,0,1,1.685.746c-.048.11-4.829,11.167-2.941,26.44,1.741,14.09,9.685,34.775,37.645,53.309a.922.922,0,0,1-.238,1.649Z" transform="translate(-205.066 -708.936)" fill="url(#linear-gradient)"/>
                  </g>
                </g>
              </g>
              <g id="Grupo_2434" data-name="Grupo 2434" transform="translate(466.753 21.175)">
                <g id="Grupo_2431" data-name="Grupo 2431" transform="translate(0 0)">
                  <path id="Caminho_613" data-name="Caminho 613" d="M1569.133,615.274c8.943-42.569,30.952-78.026,58.991-100.424a123.448,123.448,0,0,0,45.7-80.691q.636-5.013,1.7-10.088c10.754-51.2,50.843-86.11,89.538-77.981s61.346,56.221,50.591,107.418a122.531,122.531,0,0,1-10.016,29.129c-14.012,28.323-17.338,60.907-8.1,91.142,8.255,27.019,9.883,58.23,3.179,90.145-10,47.6-36.336,86.309-69.172,107.811a121.517,121.517,0,0,0-31.993,30.5c-14.418,19.994-36.464,30.963-58.189,26.4-23.436-4.923-39.939-26.545-43.662-53.371a129.667,129.667,0,0,0-14.412-43.273C1566.207,700.07,1560.092,658.313,1569.133,615.274Z" transform="translate(-1564.97 -344.914)" fill="#bdd0fb"/>
                  <path id="Caminho_614" data-name="Caminho 614" d="M1801.742,447.382c-12.163,32.774-23.263,65.912-34.017,99.166-2.693,8.312-5.251,16.667-7.836,25.013l-3.875,12.52-3.771,12.552c-2.482,8.378-5.079,16.722-7.466,25.129l-7.162,25.218c-4.559,16.872-9.263,33.706-13.508,50.663-2.135,8.475-4.435,16.907-6.4,25.426l-6.005,25.523c-7.662,34.11-14.47,68.429-19.53,103.024l1.489.233,4.771-25.74,1.178-6.435,1.339-6.406,2.7-12.806,2.676-12.808c.885-4.271,1.928-8.509,2.885-12.765,1.969-8.5,3.871-17.014,5.9-25.5,8.317-33.895,17.084-67.678,26.547-101.277,4.86-16.763,9.576-33.566,14.553-50.3l3.7-12.557,3.8-12.527c2.531-8.353,5.061-16.706,7.676-25.033q7.631-25.047,15.639-49.982c5.256-16.648,10.671-33.251,16.134-49.83Z" transform="translate(-1626.639 -394.59)" fill="url(#linear-gradient)"/>
                  <path id="Caminho_615" data-name="Caminho 615" d="M1982.224,514.862a1.269,1.269,0,0,0,.879-.635c22.817-41.4,19.142-72.552,12.041-91.392-7.715-20.466-20.674-30.941-21.223-31.378a1.269,1.269,0,0,0-1.581,1.986c.129.1,13.029,10.556,20.476,30.414,6.871,18.319,10.376,48.655-11.936,89.144a1.269,1.269,0,0,0,1.343,1.861Z" transform="translate(-1762.23 -367.345)" fill="url(#linear-gradient)"/>
                </g>
                <g id="Grupo_2432" data-name="Grupo 2432" transform="translate(99.624 242.271)">
                  <path id="Caminho_616" data-name="Caminho 616" d="M1870.345,909.861c16.605-22.487,38.929-37.337,61.273-42.952a79.457,79.457,0,0,0,48.244-34.964q1.712-2.759,3.69-5.441c19.971-27.043,52.691-36.76,73.081-21.7s20.729,49.188.758,76.231a78.936,78.936,0,0,1-13.636,14.348,79.869,79.869,0,0,0-29.113,51.086c-2.417,17.983-9.82,36.651-22.269,53.509-18.568,25.143-44.285,40.741-69.186,44.555a78.087,78.087,0,0,0-26.82,9.3c-13.758,7.839-29.549,8.374-41-.08-12.349-9.12-16.187-26.148-11.179-42.811a83.39,83.39,0,0,0,3.175-29.119C1845.948,958.619,1853.555,932.6,1870.345,909.861Z" transform="translate(-1842.058 -797.714)" fill="#91b3fa"/>
                  <path id="Caminho_617" data-name="Caminho 617" d="M2041.541,857.08c-15.863,15.906-31.2,32.308-46.373,48.869-3.794,4.139-7.522,8.338-11.263,12.525l-5.61,6.282-5.558,6.328c-3.689,4.233-7.437,8.416-11.078,12.691L1950.734,956.6c-7.174,8.642-14.42,17.222-21.433,26-3.512,4.382-7.111,8.7-10.535,13.149l-10.332,13.312c-13.6,17.885-26.749,36.12-38.957,54.983l.806.533,9.669-13.767,2.41-3.446,2.494-3.385,5-6.761,4.989-6.769c1.658-2.259,3.4-4.458,5.1-6.69,3.424-4.441,6.811-8.907,10.263-13.326q20.879-26.378,42.581-52.093c7.321-8.5,14.567-17.058,21.946-25.506l5.517-6.35,5.57-6.3c3.711-4.206,7.422-8.411,11.175-12.579q11.153-12.6,22.495-25.033,11.28-12.489,22.743-24.812Z" transform="translate(-1855.351 -826.495)" fill="#bdd0fb"/>
                  <path id="Caminho_618" data-name="Caminho 618" d="M2192.723,909.647a.868.868,0,0,0,.735-.107c26.992-17.892,34.647-37.966,36.315-51.656,1.813-14.872-2.73-25.344-2.923-25.783a.87.87,0,0,0-1.592.7,51.894,51.894,0,0,1,2.778,24.961c-1.644,13.3-9.143,32.828-35.538,50.325a.869.869,0,0,0,.225,1.556Z" transform="translate(-2011.76 -814.134)" fill="#bdd0fb"/>
                </g>
              </g>
            </g>
            <g id="Grupo_2436" data-name="Grupo 2436" transform="translate(0 504.59)">
              <path id="Caminho_622" data-name="Caminho 622" d="M399.1,1320.027,137,1408.321c-.376,0,101.973,2.649,100.9,0-.713-2.649,220.466-86.951,219.5-86.951Q427.947,1320.7,399.1,1320.027Z" transform="translate(-137 -1316.937)" fill="#7d97f4"/>
              <path id="Caminho_623" data-name="Caminho 623" d="M625.24,1319.03q-95.872,44.887-187.316,89.775H539.217q68.075-43.917,141.76-87.834Q652.691,1320,625.24,1319.03Z" transform="translate(-257.691 -1316.537)" fill="#7d97f4"/>
              <path id="Caminho_624" data-name="Caminho 624" d="M839.586,1320.636q-1.729,1.308-3.454,2.616-56.186,42.644-103.725,85.289l78.525.366q46.8-45.178,93.6-90.355Q872.53,1319.594,839.586,1320.636Z" transform="translate(-375.799 -1316.345)" fill="#7d97f4"/>
              <path id="Caminho_625" data-name="Caminho 625" d="M1665.981,1319.03q83.869,44.887,172.167,89.775h101.294q-107.778-43.917-209.951-87.834Q1697.318,1320,1665.981,1319.03Z" transform="translate(-750.226 -1316.537)" fill="#7d97f4"/>
              <path id="Caminho_626" data-name="Caminho 626" d="M1838.686,1320.636l7.019,2.616q114.58,42.644,237.8,85.289l79.99.366-268.211-90.355Q1867.457,1319.594,1838.686,1320.636Z" transform="translate(-819.492 -1316.345)" fill="#7d97f4"/>
              <path id="Caminho_627" data-name="Caminho 627" d="M1076.19,1321.2l-54.025,87.411c-.674,0,109.527,4.71,105.193.295-4.263-4.415,14.656-90.355,14.007-90.355Q1109.39,1319.877,1076.19,1321.2Z" transform="translate(-492.011 -1316.345)" fill="#7d97f4"/>
              <path id="Caminho_628" data-name="Caminho 628" d="M1297.782,1317.074q8.394,45.913,16.786,91.827h83.523a780.189,780.189,0,0,0-41.041-94.035Q1327.907,1315.971,1297.782,1317.074Z" transform="translate(-602.553 -1314.867)" fill="#7d97f4"/>
              <path id="Caminho_629" data-name="Caminho 629" d="M1501.079,1315.6q50.919,46.8,101.839,93.594l119.99.416q-96.854-46.121-175.509-92.244Q1523.953,1316.486,1501.079,1315.6Z" transform="translate(-684.089 -1315.163)" fill="#7d97f4"/>
            </g>
            <g id="Grupo_2468" data-name="Grupo 2468" transform="translate(1037.665 276.437)">
              <g id="Grupo_2466" data-name="Grupo 2466" transform="translate(0 109.199)">
                <path id="Caminho_682" data-name="Caminho 682" d="M1540.685,1142.728a1.548,1.548,0,0,1-.453-.067l-7.667-2.379a1.556,1.556,0,0,1-1.094-1.434l-.193-6.137a30.033,30.033,0,0,1-6.663-5.534l-6.064.932a1.55,1.55,0,0,1-1.613-.816l-3.738-7.094a1.553,1.553,0,0,1,.244-1.79l4.2-4.473a29.974,29.974,0,0,1-.794-8.625l-4.951-3.631a1.558,1.558,0,0,1-.566-1.716l2.376-7.662a1.56,1.56,0,0,1,1.434-1.094l6.139-.192a30.032,30.032,0,0,1,5.534-6.663l-.934-6.066a1.55,1.55,0,0,1,.817-1.613l7.094-3.737a1.557,1.557,0,0,1,1.788.242l4.473,4.2a29.867,29.867,0,0,1,8.626-.791l3.63-4.952a1.541,1.541,0,0,1,1.718-.563l7.659,2.373a1.56,1.56,0,0,1,1.093,1.435l.193,6.139a30.1,30.1,0,0,1,6.663,5.533l6.066-.932a1.563,1.563,0,0,1,1.611.814l3.737,7.1a1.549,1.549,0,0,1-.243,1.79l-4.2,4.472a30.073,30.073,0,0,1,.793,8.626l4.953,3.631a1.555,1.555,0,0,1,.567,1.71l-2.379,7.669a1.557,1.557,0,0,1-1.434,1.093l-6.139.192a30.017,30.017,0,0,1-5.534,6.662l.933,6.064a1.564,1.564,0,0,1-.812,1.615l-7.1,3.736a1.547,1.547,0,0,1-1.79-.241l-4.472-4.2a30.083,30.083,0,0,1-8.626.793l-3.63,4.952A1.557,1.557,0,0,1,1540.685,1142.728Zm-7.216-4.269,7.043,2.184,4.091-5.58.553.039a28.005,28.005,0,0,0,9.077-.834l.537-.141,5.04,4.734,6.525-3.435-1.052-6.836.42-.363a28.09,28.09,0,0,0,5.823-7.01l.281-.479,6.914-.218,2.185-7.043-5.579-4.09.039-.554a28.114,28.114,0,0,0-.836-9.077l-.14-.538,4.734-5.039-3.436-6.524-6.834,1.052-.363-.418a28.08,28.08,0,0,0-7.012-5.824l-.478-.282-.217-6.915-7.044-2.182-4.091,5.58-.553-.04a27.907,27.907,0,0,0-9.075.832l-.538.142-5.04-4.734-6.524,3.436,1.051,6.834-.419.364a28.023,28.023,0,0,0-5.823,7.011l-.281.479-6.916.218-2.184,7.042,5.58,4.091-.039.553a28.066,28.066,0,0,0,.835,9.076l.14.536-4.733,5.042,3.437,6.524,6.833-1.052.365.419a28.036,28.036,0,0,0,7.01,5.821l.479.281Zm26.054.553,0,0Zm-26.366-.65h0Zm-14.442-12.006v0Zm59.91-5.524,0,0Zm2.542-7.162,0,0Zm-1.892-19.2,0,0Zm-3.738-7.1h0Zm-47.9-8.917-.006,0Zm25.795-5.463,0,0Zm.5-.168,0,0Zm-6.95,54.381a20.364,20.364,0,1,1,19.6-25.834l-1.935.538a18.35,18.35,0,1,0-2.008,14.469l1.718,1.044a20.427,20.427,0,0,1-17.373,9.782Z" transform="translate(-1511.262 -1070.999)" fill="#91b3fa"/>
                <path id="Caminho_683" data-name="Caminho 683" d="M1565.71,1133.57c-.148,0-.3,0-.445-.011a8.13,8.13,0,1,1,6.481-13.552h0a8.129,8.129,0,0,1-6.035,13.563Zm-.014-14.245a6.116,6.116,0,1,0,4.554,2.025A6.1,6.1,0,0,0,1565.7,1119.324Z" transform="translate(-1529.835 -1089.575)" fill="#91b3fa"/>
              </g>
              <g id="Grupo_2467" data-name="Grupo 2467" transform="translate(64.123)">
                <path id="Caminho_684" data-name="Caminho 684" d="M1686.682,1033.343a2.116,2.116,0,0,1-1.953-1.307l-4.918-11.944a59.57,59.57,0,0,1-17.235-5.991l-11.268,6.33a2.111,2.111,0,0,1-2.438-.261l-12.08-10.74a2.115,2.115,0,0,1-.547-2.393l4.972-11.93a59.613,59.613,0,0,1-7.964-16.419l-12.436-3.488a2.11,2.11,0,0,1-1.537-1.91l-.946-16.138a2.112,2.112,0,0,1,1.3-2.077l11.944-4.917a59.635,59.635,0,0,1,5.991-17.237l-6.331-11.269a2.11,2.11,0,0,1,.263-2.437l10.742-12.079a2.108,2.108,0,0,1,2.393-.545l11.928,4.968a59.7,59.7,0,0,1,16.417-7.963l3.489-12.434a2.113,2.113,0,0,1,1.909-1.539l16.138-.946a2.145,2.145,0,0,1,2.076,1.3l4.918,11.944a59.588,59.588,0,0,1,17.236,5.99l11.269-6.332a2.118,2.118,0,0,1,2.438.263l12.08,10.743a2.109,2.109,0,0,1,.546,2.391l-4.971,11.929a59.656,59.656,0,0,1,7.965,16.419l12.436,3.487h0a2.112,2.112,0,0,1,1.54,1.91l.946,16.138a2.112,2.112,0,0,1-1.3,2.077l-11.945,4.917a59.649,59.649,0,0,1-5.99,17.237l6.332,11.268a2.112,2.112,0,0,1-.264,2.438l-10.742,12.079a2.116,2.116,0,0,1-2.393.546l-11.929-4.968a59.609,59.609,0,0,1-16.418,7.962l-3.487,12.436a2.114,2.114,0,0,1-1.911,1.539l-16.137.946C1686.763,1033.342,1686.723,1033.343,1686.682,1033.343Zm-24.128-21.536.488.265a57.693,57.693,0,0,0,17.658,6.137l.548.095,5.34,12.966,16.237-.883,3.881-13.577.531-.159a57.529,57.529,0,0,0,16.82-8.157l.453-.318,12.954,5.394,10.856-12.1-6.86-12.352.265-.487a57.64,57.64,0,0,0,6.136-17.659l.1-.548,12.966-5.337-.959-16.332-13.5-3.786-.157-.532a57.652,57.652,0,0,0-8.159-16.822l-.32-.453,5.4-12.952-12.106-10.857-12.351,6.86-.487-.265a57.682,57.682,0,0,0-17.659-6.138l-.546-.094-5.339-12.966-16.238.883-3.881,13.575-.531.159a57.615,57.615,0,0,0-16.82,8.159l-.453.319-12.953-5.394L1633,920.551l6.86,12.352-.265.487a57.615,57.615,0,0,0-6.135,17.66l-.095.547-12.967,5.337.883,16.24,13.577,3.878.158.532a57.554,57.554,0,0,0,8.158,16.821l.319.453-5.4,12.952,12.107,10.856Zm27.807-10.993a39.967,39.967,0,1,1,39.567-33.846l-1.987-.307a38,38,0,1,0-16.167,25.558l1.133,1.66a39.962,39.962,0,0,1-20.18,6.866C1691.934,1000.792,1691.144,1000.814,1690.36,1000.814Z" transform="translate(-1618.325 -888.676)" fill="#91b3fa"/>
                <path id="Caminho_685" data-name="Caminho 685" d="M1728.819,1014.519a15.362,15.362,0,1,1,4.615-.714A15.385,15.385,0,0,1,1728.819,1014.519Zm-.019-28.712a13.351,13.351,0,1,0,12.738,9.332A13.315,13.315,0,0,0,1728.8,985.807Z" transform="translate(-1656.474 -926.826)" fill="#91b3fa"/>
              </g>
            </g>
          </g>
        </g>
      </g>
    </g>
  </g>
</svg>
