<svg xmlns="http://www.w3.org/2000/svg" xmlns:xlink="http://www.w3.org/1999/xlink" width="24.534" height="24.349" viewBox="0 0 24.534 24.349">
  <defs>
    <clipPath id="clip-path">
      <rect id="Retângulo_1093" data-name="Retângulo 1093" width="22.8" height="23" transform="translate(41 21.772)" fill="#fff"/>
    </clipPath>
  </defs>
  <g id="Grupo_2901" data-name="Grupo 2901" transform="matrix(-0.07, 0.998, -0.998, -0.07, 49.113, -37.777)">
    <g id="Grupo_2900" data-name="Grupo 2900">
      <g id="Grupo_2899" data-name="Grupo 2899" clip-path="url(#clip-path)">
        <path id="Caminho_1673" data-name="Caminho 1673" d="M62.246,29.928,50.859,41.194a4.879,4.879,0,0,1-6.836,0,4.743,4.743,0,0,1,0-6.758L54.273,24.3a3.247,3.247,0,0,1,4.559,0,3.159,3.159,0,0,1,0,4.5L48.578,38.94a1.624,1.624,0,0,1-2.277,0,1.582,1.582,0,0,1,0-2.254l9.113-9.008-1.141-1.129-9.109,9.012a3.164,3.164,0,0,0,0,4.508,3.25,3.25,0,0,0,4.555,0l10.25-10.141a4.743,4.743,0,0,0,0-6.758,4.874,4.874,0,0,0-6.832,0l-10.821,10.7.039.04a6.313,6.313,0,0,0,.528,8.406,6.493,6.493,0,0,0,8.5.523l.039.039L63.387,31.057Zm0,0" fill="#fff" fill-rule="evenodd"/>
      </g>
    </g>
  </g>
</svg>
