<svg id="Grupo_229" data-name="Grupo 229" xmlns="http://www.w3.org/2000/svg" xmlns:xlink="http://www.w3.org/1999/xlink" width="43.304" height="43.304" viewBox="0 0 43.304 43.304">
  <defs>
    <clipPath id="clip-path">
      <rect id="Retângulo_26" data-name="Retângulo 26" width="43.304" height="43.304" fill="#0e5edc"/>
    </clipPath>
  </defs>
  <path id="Caminho_31" data-name="Caminho 31" d="M386.221,311.448h-1.9a4.75,4.75,0,0,0-9.135,0h-1.9A1.3,1.3,0,0,0,372,312.74v2.586a3.031,3.031,0,0,0,3.017,3.017H384.5a3.031,3.031,0,0,0,3.017-3.017V312.74a1.3,1.3,0,0,0-1.293-1.293Zm0,0" transform="translate(-364.833 -307.376)" fill="#0e5edc"/>
  <g id="Grupo_211" data-name="Grupo 211" transform="translate(0 0)">
    <g id="Grupo_210" data-name="Grupo 210" clip-path="url(#clip-path)">
      <path id="Caminho_32" data-name="Caminho 32" d="M332.563,356h-.431v2.155a4.738,4.738,0,0,1-4.74,4.74h-9.48a4.738,4.738,0,0,1-4.74-4.74V356h-.431a4.738,4.738,0,0,0-4.74,4.74v21.547a4.738,4.738,0,0,0,4.74,4.74h12.721l.38-2.12a4.794,4.794,0,0,1,1.31-2.534l1.379-1.379H314.464a1.293,1.293,0,1,1,0-2.586H330.84a.585.585,0,0,1,.241.034h.017l6.206-6.206v-11.5a4.738,4.738,0,0,0-4.74-4.74Zm-1.724,19.392H314.464a1.293,1.293,0,1,1,0-2.586H330.84a1.293,1.293,0,0,1,0,2.586Zm0-5.6H314.464a1.293,1.293,0,1,1,0-2.586H330.84a1.293,1.293,0,0,1,0,2.586Zm0,0" transform="translate(-307.728 -350.205)" fill="#0e5edc"/>
      <path id="Caminho_33" data-name="Caminho 33" d="M497.732,516.041a1.293,1.293,0,0,1-1.272-1.519l.913-5.18a1.293,1.293,0,0,1,.359-.689l12.8-12.8c1.572-1.576,3.117-1.15,3.961-.305l2.132,2.132a3.018,3.018,0,0,1,0,4.266l-12.8,12.8a1.276,1.276,0,0,1-.689.358l-5.18.914a1.226,1.226,0,0,1-.224.021Zm5.18-2.206h0Zm0,0" transform="translate(-475.866 -474.047)" fill="#0e5edc"/>
    </g>
  </g>
</svg>
