<svg id="Grupo_3006" data-name="Grupo 3006" xmlns="http://www.w3.org/2000/svg" width="8.778" height="8.778" viewBox="0 0 8.778 8.778">
  <path id="Caminho_1704" data-name="Caminho 1704" d="M-260.275-269.638a4.394,4.394,0,0,0-4.389,4.389,4.394,4.394,0,0,0,4.389,4.389,4.394,4.394,0,0,0,4.389-4.389,4.394,4.394,0,0,0-4.389-4.389Zm2.087,6.659a.365.365,0,0,1-.259.107.365.365,0,0,1-.259-.107l-1.829-1.829a.364.364,0,0,1-.107-.259v-2.377a.366.366,0,0,1,.366-.366.366.366,0,0,1,.366.366v2.226l1.722,1.722a.365.365,0,0,1,0,.517Zm0,0" transform="translate(264.664 269.638)" fill="#0440a0"/>
</svg>
