<svg xmlns="http://www.w3.org/2000/svg" width="17.257" height="17.257" viewBox="0 0 17.257 17.257">
  <g id="Grupo_3175" data-name="Grupo 3175" transform="translate(-264.889 -444.999)">
    <path id="Caminho_1727" data-name="Caminho 1727" d="M-320.371-235.638A8.638,8.638,0,0,0-329-227.009a8.638,8.638,0,0,0,8.629,8.629,8.638,8.638,0,0,0,8.629-8.629,8.638,8.638,0,0,0-8.629-8.629Zm0,0" transform="translate(593.889 680.637)" fill="#f44336"/>
    <path id="Caminho_1728" data-name="Caminho 1728" d="M-166.962-74.617a.718.718,0,0,1,0,1.017.717.717,0,0,1-.508.211.717.717,0,0,1-.508-.211l-2.161-2.161L-172.3-73.6a.717.717,0,0,1-.508.211.717.717,0,0,1-.508-.211.718.718,0,0,1,0-1.017l2.161-2.161-2.161-2.161a.718.718,0,0,1,0-1.017.718.718,0,0,1,1.017,0l2.161,2.161,2.161-2.161a.718.718,0,0,1,1.017,0,.718.718,0,0,1,0,1.017l-2.161,2.161Zm0,0" transform="translate(443.657 530.406)" fill="#fafafa"/>
  </g>
</svg>
