<svg id="Grupo_238" data-name="Grupo 238" xmlns="http://www.w3.org/2000/svg" xmlns:xlink="http://www.w3.org/1999/xlink" width="28.243" height="23.372" viewBox="0 0 28.243 23.372">
  <defs>
    <clipPath id="clip-path">
      <rect id="Retângulo_35" data-name="Retângulo 35" width="28.243" height="23.232" fill="#fff"/>
    </clipPath>
  </defs>
  <g id="Grupo_237" data-name="Grupo 237">
    <g id="Grupo_236" data-name="Grupo 236" clip-path="url(#clip-path)">
      <path id="Caminho_68" data-name="Caminho 68" d="M411,356.36a.875.875,0,0,1-.633-.271l-6.135-6.427a.877.877,0,0,1,.633-1.482h3.214v-6.719A1.463,1.463,0,0,1,409.54,340h2.922a1.463,1.463,0,0,1,1.461,1.461v6.719h3.214a.877.877,0,0,1,.633,1.482l-6.135,6.427a.875.875,0,0,1-.633.271Zm0,0" transform="translate(-396.978 -340)" fill="#fff"/>
    </g>
  </g>
  <path id="Caminho_69" data-name="Caminho 69" d="M334,600.674H310.045A2.047,2.047,0,0,1,308,598.629v-.584A2.047,2.047,0,0,1,310.045,596H334a2.047,2.047,0,0,1,2.045,2.045v.584A2.047,2.047,0,0,1,334,600.674Zm0,0" transform="translate(-308 -577.303)" fill="#fff"/>
</svg>
