<svg id="Grupo_2858" data-name="Grupo 2858" xmlns="http://www.w3.org/2000/svg" width="17.38" height="17.38" viewBox="0 0 17.38 17.38">
  <path id="Caminho_1661" data-name="Caminho 1661" d="M147.742,26.193l-3.4,3.4a4.112,4.112,0,0,0,0,5.761,3.877,3.877,0,0,0,.819.621l.621-.621a1.4,1.4,0,0,0,.257-1.228,1.966,1.966,0,0,1-.257-.212,2.059,2.059,0,0,1,0-2.88l3.4-3.4a2.037,2.037,0,0,1,2.88,2.88l-2.25,2.25a5.862,5.862,0,0,1,.255,2.62c.01-.01.022-.016.031-.026l3.4-3.4a4.073,4.073,0,0,0-5.761-5.761Z" transform="translate(-137.315 -25)" fill="#0e5edc"/>
  <path id="Caminho_1662" data-name="Caminho 1662" d="M-22.046,215.826l3.668-3.668a4.11,4.11,0,0,0,0-5.761,3.877,3.877,0,0,0-.819-.621l-.621.621a1.4,1.4,0,0,0-.257,1.228,1.962,1.962,0,0,1,.257.212,2.059,2.059,0,0,1,0,2.88l-3.668,3.668a2.039,2.039,0,0,1-2.88,0,2.039,2.039,0,0,1,0-2.88l2.514-2.514a5.862,5.862,0,0,1-.255-2.62c-.01.01-.022.016-.031.026l-3.668,3.668a4.073,4.073,0,0,0,0,5.761A4.073,4.073,0,0,0-22.046,215.826Z" transform="translate(29 -199.64)" fill="#0e5edc"/>
</svg>
