<svg xmlns="http://www.w3.org/2000/svg" width="262.237" height="100.783" viewBox="0 0 262.237 100.783">
  <g id="Grupo_7" data-name="Grupo 7" transform="translate(89 16)">
    <g id="Grupo_6" data-name="Grupo 6" transform="translate(-89 -16)">
      <path id="Caminho_1" data-name="Caminho 1" d="M261.518,256.194l-1.871-2.389s-5.386-13.8-9.7-17.613c0,0-1.828-6.942-.625-10.3,0,0-2.419,1.563-3.11,3.012,0,0,.062-4.244.79-5.065,0,0-7.367,5.157-7.672,7.836a30.507,30.507,0,0,0-27.67,9.364s4.776-1.548,6.531-1.017c0,0-19.884,9.651-20.087,28.161,0,0,4.742-9.025,6.572-10.3a41.866,41.866,0,0,0-.015,7.417,67.174,67.174,0,0,0,10.28,28.643l26.763,13.259s5.551-16.9-1.22-27.641c-7.053-11.184-9.359-23.7-.535-24.708,0,0,5.455,7.2,12.218,7.567,0,0,1.27,7.931,9.134,3.053C263.4,264.165,263.905,259.2,261.518,256.194Z" transform="translate(-198.106 -223.833)" fill="#f99300"/>
      <g id="Grupo_1" data-name="Grupo 1" transform="translate(69.701 30.47)">
        <path id="Caminho_2" data-name="Caminho 2" d="M323.7,311.048a19.893,19.893,0,0,0,3.015-.229,8.976,8.976,0,0,0,2.688-.82,5.087,5.087,0,0,0,1.933-1.671,4.766,4.766,0,0,0,.754-2.786,3.64,3.64,0,0,0-.721-2.261,8.292,8.292,0,0,0-1.835-1.737,17.017,17.017,0,0,0-2.491-1.441q-1.376-.655-2.752-1.443a36.71,36.71,0,0,1-3.343-2.228,13.426,13.426,0,0,1-2.687-2.655,12.412,12.412,0,0,1-1.77-3.277,12.143,12.143,0,0,1-.656-4.163,13.678,13.678,0,0,1,1.147-5.6,12.353,12.353,0,0,1,3.409-4.491,16.418,16.418,0,0,1,5.67-2.981,26.494,26.494,0,0,1,8-1.082,22.587,22.587,0,0,1,4.064.361,32.249,32.249,0,0,1,3.671.886,21.449,21.449,0,0,1,3.114,1.213,20.981,20.981,0,0,1,2.392,1.343l-4.261,7.539a15.3,15.3,0,0,0-9.111-2.949,15.353,15.353,0,0,0-2.884.262,7.438,7.438,0,0,0-2.425.885,4.9,4.9,0,0,0-1.672,1.605,5.088,5.088,0,0,0-.131,4.621,5.407,5.407,0,0,0,1.278,1.54,9.412,9.412,0,0,0,1.836,1.18q1.048.527,2.229,1.114,2.031,1.048,3.932,2.229a16.41,16.41,0,0,1,3.344,2.72,12.206,12.206,0,0,1,2.294,3.507,11.661,11.661,0,0,1,.852,4.654,14.347,14.347,0,0,1-1.376,6.489,12.645,12.645,0,0,1-3.867,4.588,17.012,17.012,0,0,1-5.933,2.721,30.628,30.628,0,0,1-7.636.885,27.279,27.279,0,0,1-5.146-.459,36.5,36.5,0,0,1-4.327-1.081,22.482,22.482,0,0,1-3.342-1.344,20.035,20.035,0,0,1-2.261-1.311l4.326-7.8a21.622,21.622,0,0,0,1.9,1.114,21.056,21.056,0,0,0,2.524,1.114,23.248,23.248,0,0,0,2.982.885A14.566,14.566,0,0,0,323.7,311.048Z" transform="translate(-308.694 -272.177)" fill="#fff"/>
        <path id="Caminho_3" data-name="Caminho 3" d="M362.269,319.267l10.881-45.426h29.693l-2.1,8.391H381.278l-2.1,9.175h17.174l-2.033,8.26H377.149l-2.622,11.143H395.5l-2.1,8.456Z" transform="translate(-328.502 -272.792)" fill="#fff"/>
        <path id="Caminho_4" data-name="Caminho 4" d="M448.225,310.614l-2.1,8.653H415.844l10.881-45.426h10.226L428.1,310.614Z" transform="translate(-348.31 -272.792)" fill="#fff"/>
        <path id="Caminho_5" data-name="Caminho 5" d="M502.027,319.267q-.132-2.557-.3-5.015t-.361-4.883H484.329q-1.312,2.426-2.754,4.883t-2.752,5.015H468.138q4.26-7.342,7.964-13.569t7.145-11.733q3.44-5.506,6.719-10.455t6.685-9.668h9.111q1.049,4.719,2,10.455t1.769,11.733q.82,6,1.508,12t1.278,11.242ZM499.012,283.8q-2.754,4.391-5.408,8.719t-5.146,8.848h12.258q-.329-4-.689-8.521T499.012,283.8Z" transform="translate(-367.645 -272.792)" fill="#fff"/>
        <path id="Caminho_6" data-name="Caminho 6" d="M587.109,291.232a30.869,30.869,0,0,1-2.163,11.865,24.217,24.217,0,0,1-6.2,8.882,27.845,27.845,0,0,1-9.8,5.6,40.306,40.306,0,0,1-13.044,1.966q-2.753,0-6.358-.328a57.727,57.727,0,0,1-6.949-1.049l10.553-43.853a69.026,69.026,0,0,1,7.178-1.015q3.441-.3,6.194-.3a26.774,26.774,0,0,1,8.685,1.311,18.245,18.245,0,0,1,6.49,3.736,15.938,15.938,0,0,1,4.031,5.768A19.278,19.278,0,0,1,587.109,291.232Zm-32.577,19.534c.48.043.972.076,1.475.1s1.189.033,2.065.033a21.461,21.461,0,0,0,7.7-1.311,15.94,15.94,0,0,0,5.834-3.768,16.842,16.842,0,0,0,3.7-6.03,23.2,23.2,0,0,0,1.311-8.03,13.8,13.8,0,0,0-.59-4.162,7.808,7.808,0,0,0-1.934-3.212,8.829,8.829,0,0,0-3.474-2.065,16.164,16.164,0,0,0-5.146-.721q-1.967,0-4,.2Z" transform="translate(-395.176 -272.485)" fill="#fff"/>
      </g>
      <g id="Grupo_2" data-name="Grupo 2" transform="translate(69.701 88.775)">
        <path id="Caminho_7" data-name="Caminho 7" d="M315.833,365.025l-.254,1.084h-2.794l-1.966,8.182h-1.3l1.966-8.182h-2.794l.254-1.084Z" transform="translate(-308.694 -364.811)" fill="#fff"/>
        <path id="Caminho_8" data-name="Caminho 8" d="M324,364.877a4.067,4.067,0,0,1,2.353.6,2.007,2.007,0,0,1,.869,1.764,2.908,2.908,0,0,1-.688,1.972,3.845,3.845,0,0,1-1.932,1.143q.161.281.374.715t.441.962q.227.529.441,1.1c.142.379.267.746.374,1.1h-1.324c-.125-.34-.254-.682-.388-1.03s-.27-.682-.408-1-.276-.621-.414-.9-.265-.528-.381-.742c-.117.009-.232.016-.347.02s-.233.007-.348.007h-1.03l-.869,3.65h-1.3l2.193-9.145a6.9,6.9,0,0,1,1.189-.174Q323.438,364.877,324,364.877Zm-.161,1.1a6.677,6.677,0,0,0-1.15.054l-.841,3.5h.789a8.013,8.013,0,0,0,1.123-.08,3.408,3.408,0,0,0,1.049-.314,2.045,2.045,0,0,0,.775-.655,1.88,1.88,0,0,0,.3-1.117,1.131,1.131,0,0,0-.568-1.07A3,3,0,0,0,323.839,365.972Z" transform="translate(-312.662 -364.756)" fill="#fff"/>
        <path id="Caminho_9" data-name="Caminho 9" d="M334.754,371.91l-1.31,2.381h-1.417q1.5-2.7,2.921-4.974t2.814-4.292h1.27q.2,1,.368,2.025t.327,2.147q.161,1.123.308,2.38t.308,2.714h-1.31q-.067-.6-.12-1.211c-.036-.405-.076-.794-.121-1.17Zm3.918-1.043q-.108-1.083-.248-2.152t-.328-2.207q-.468.683-1.164,1.759t-1.577,2.6Z" transform="translate(-317.321 -364.811)" fill="#fff"/>
        <path id="Caminho_10" data-name="Caminho 10" d="M353.743,374.291c-.16-.518-.352-1.1-.575-1.765s-.466-1.329-.729-2.006-.533-1.334-.809-1.972a17.611,17.611,0,0,0-.816-1.664l-1.778,7.406h-1.27l2.219-9.266H351.1q.427.723.876,1.639t.855,1.877q.408.964.756,1.886t.575,1.657l1.658-7.059h1.27l-2.205,9.266Z" transform="translate(-323.14 -364.811)" fill="#fff"/>
        <path id="Caminho_11" data-name="Caminho 11" d="M365.176,373.242a3.846,3.846,0,0,0,.822-.088,2.229,2.229,0,0,0,.728-.287,1.6,1.6,0,0,0,.522-.528,1.523,1.523,0,0,0,.2-.809,1.255,1.255,0,0,0-.127-.581,1.494,1.494,0,0,0-.348-.442,2.954,2.954,0,0,0-.521-.361c-.2-.112-.421-.229-.662-.354q-.308-.161-.622-.348a2.414,2.414,0,0,1-.561-.46,2.19,2.19,0,0,1-.4-.649,2.354,2.354,0,0,1-.154-.9,2.616,2.616,0,0,1,.234-1.109,2.413,2.413,0,0,1,.688-.875,3.249,3.249,0,0,1,1.116-.568,5.258,5.258,0,0,1,1.518-.2,4.621,4.621,0,0,1,.762.06,5.358,5.358,0,0,1,.662.154,4.824,4.824,0,0,1,.528.195,1.806,1.806,0,0,1,.335.18l-.6,1.017a2.167,2.167,0,0,0-.729-.341,4.02,4.02,0,0,0-1.183-.154,3.453,3.453,0,0,0-.8.086,1.851,1.851,0,0,0-.635.274,1.425,1.425,0,0,0-.427.474,1.591,1.591,0,0,0-.054,1.271,1.346,1.346,0,0,0,.294.415,2.037,2.037,0,0,0,.461.328q.274.147.6.308.4.2.756.408a2.789,2.789,0,0,1,.622.487,2.1,2.1,0,0,1,.421.656,2.4,2.4,0,0,1,.154.908,2.76,2.76,0,0,1-.287,1.29,2.636,2.636,0,0,1-.789.923,3.56,3.56,0,0,1-1.191.554,5.628,5.628,0,0,1-1.49.187,5.967,5.967,0,0,1-.969-.072,5.354,5.354,0,0,1-.762-.181,4.248,4.248,0,0,1-.555-.221,2.136,2.136,0,0,1-.348-.208l.6-1.055a4.4,4.4,0,0,0,.8.394A3.773,3.773,0,0,0,365.176,373.242Z" transform="translate(-328.544 -364.685)" fill="#fff"/>
        <path id="Caminho_12" data-name="Caminho 12" d="M379.6,364.877a4.046,4.046,0,0,1,2.44.615,2.1,2.1,0,0,1,.822,1.791,3.392,3.392,0,0,1-.341,1.571,2.918,2.918,0,0,1-.969,1.09,4.475,4.475,0,0,1-1.511.635,8.661,8.661,0,0,1-1.965.208h-.923l-.829,3.449h-1.3l2.192-9.145a6.914,6.914,0,0,1,1.191-.174Q379.034,364.877,379.6,364.877Zm-.16,1.1a6.667,6.667,0,0,0-1.15.054L377.4,369.7h.843a6.9,6.9,0,0,0,1.15-.1,3.369,3.369,0,0,0,1.056-.355,2.132,2.132,0,0,0,.769-.7,2.036,2.036,0,0,0,.3-1.156,1.158,1.158,0,0,0-.561-1.089A3.028,3.028,0,0,0,379.436,365.972Z" transform="translate(-333.218 -364.756)" fill="#fff"/>
        <path id="Caminho_13" data-name="Caminho 13" d="M394.555,364.685a4.053,4.053,0,0,1,1.357.221,2.871,2.871,0,0,1,1.07.662,2.991,2.991,0,0,1,.7,1.1,4.4,4.4,0,0,1,.248,1.543,7.379,7.379,0,0,1-.341,2.206,6.344,6.344,0,0,1-1.009,1.973,5.236,5.236,0,0,1-1.672,1.423,4.8,4.8,0,0,1-2.339.548,4,4,0,0,1-1.364-.221,2.885,2.885,0,0,1-1.062-.661,2.983,2.983,0,0,1-.7-1.1,4.414,4.414,0,0,1-.247-1.545,7.573,7.573,0,0,1,.334-2.2,6.123,6.123,0,0,1,1.01-1.978,5.332,5.332,0,0,1,1.678-1.424A4.806,4.806,0,0,1,394.555,364.685Zm-1.858,8.557a3.078,3.078,0,0,0,1.617-.435,4.1,4.1,0,0,0,1.223-1.129,5.342,5.342,0,0,0,.769-1.564,5.9,5.9,0,0,0,.268-1.738,3.072,3.072,0,0,0-.516-1.879,1.91,1.91,0,0,0-1.637-.689,3.069,3.069,0,0,0-1.624.434,4.163,4.163,0,0,0-1.217,1.13,5.357,5.357,0,0,0-.769,1.565,5.889,5.889,0,0,0-.267,1.738,3.076,3.076,0,0,0,.515,1.879A1.91,1.91,0,0,0,392.7,373.242Z" transform="translate(-338.457 -364.685)" fill="#fff"/>
        <path id="Caminho_14" data-name="Caminho 14" d="M409.273,364.877a4.069,4.069,0,0,1,2.354.6,2.007,2.007,0,0,1,.869,1.764,2.9,2.9,0,0,1-.688,1.972,3.847,3.847,0,0,1-1.932,1.143q.162.281.374.715t.442.962q.226.529.441,1.1c.142.379.267.746.374,1.1h-1.324c-.125-.34-.254-.682-.388-1.03s-.27-.682-.408-1-.276-.621-.415-.9-.265-.528-.381-.742c-.116.009-.233.016-.347.02s-.232.007-.348.007h-1.029l-.869,3.65h-1.3l2.192-9.145a6.912,6.912,0,0,1,1.191-.174Q408.711,364.877,409.273,364.877Zm-.16,1.1a6.665,6.665,0,0,0-1.15.054l-.842,3.5h.788a8.017,8.017,0,0,0,1.123-.08,3.4,3.4,0,0,0,1.049-.314,2.044,2.044,0,0,0,.775-.655,1.88,1.88,0,0,0,.3-1.117,1.132,1.132,0,0,0-.569-1.07A3,3,0,0,0,409.113,365.972Z" transform="translate(-344.19 -364.756)" fill="#fff"/>
        <path id="Caminho_15" data-name="Caminho 15" d="M426.688,365.025l-.254,1.084H423.64l-1.965,8.182h-1.3l1.964-8.182h-2.794l.254-1.084Z" transform="translate(-349.68 -364.811)" fill="#fff"/>
        <path id="Caminho_16" data-name="Caminho 16" d="M430.062,371.91l-1.311,2.381h-1.417q1.5-2.7,2.921-4.974t2.815-4.292h1.27q.2,1,.367,2.025t.327,2.147q.161,1.123.308,2.38t.308,2.714h-1.31q-.068-.6-.121-1.211c-.035-.405-.076-.794-.12-1.17Zm3.917-1.043q-.107-1.083-.247-2.152t-.328-2.207q-.468.683-1.163,1.759t-1.577,2.6Z" transform="translate(-352.558 -364.811)" fill="#fff"/>
        <path id="Caminho_17" data-name="Caminho 17" d="M452.325,367.017c-.142.2-.32.451-.534.763s-.446.654-.7,1.029-.509.763-.775,1.17-.526.8-.776,1.177-.481.73-.7,1.056-.388.589-.521.795h-1.044q-.053-.32-.14-.809c-.058-.325-.123-.678-.194-1.056s-.145-.77-.221-1.177-.152-.8-.227-1.169-.145-.715-.207-1.023-.117-.559-.161-.756q-.563,1.725-1.1,3.557T444,374.291h-1.284q.321-1.2.676-2.427t.722-2.406q.368-1.182.736-2.306t.715-2.126h1.271q.159.589.34,1.391t.361,1.678q.18.875.334,1.745t.26,1.577l1.063-1.59,1.17-1.745q.588-.875,1.143-1.671t1-1.384h1.242q-.227,2.261-.608,4.593t-.836,4.673H451q.4-1.926.735-3.737T452.325,367.017Z" transform="translate(-358.244 -364.811)" fill="#fff"/>
        <path id="Caminho_18" data-name="Caminho 18" d="M468.056,364.685a4.052,4.052,0,0,1,1.356.221,2.871,2.871,0,0,1,1.07.662,3.009,3.009,0,0,1,.7,1.1,4.413,4.413,0,0,1,.247,1.543,7.377,7.377,0,0,1-.341,2.206,6.328,6.328,0,0,1-1.009,1.973,5.235,5.235,0,0,1-1.672,1.423,4.8,4.8,0,0,1-2.339.548,3.992,3.992,0,0,1-1.364-.221,2.88,2.88,0,0,1-1.063-.661,3,3,0,0,1-.7-1.1,4.415,4.415,0,0,1-.247-1.545,7.575,7.575,0,0,1,.334-2.2,6.111,6.111,0,0,1,1.01-1.978,5.326,5.326,0,0,1,1.678-1.424A4.807,4.807,0,0,1,468.056,364.685Zm-1.859,8.557a3.08,3.08,0,0,0,1.618-.435,4.1,4.1,0,0,0,1.223-1.129,5.357,5.357,0,0,0,.77-1.564,5.918,5.918,0,0,0,.267-1.738,3.076,3.076,0,0,0-.515-1.879,1.912,1.912,0,0,0-1.638-.689,3.064,3.064,0,0,0-1.624.434,4.159,4.159,0,0,0-1.218,1.13,5.342,5.342,0,0,0-.768,1.565,5.871,5.871,0,0,0-.267,1.738,3.076,3.076,0,0,0,.514,1.879A1.912,1.912,0,0,0,466.2,373.242Z" transform="translate(-365.632 -364.685)" fill="#fff"/>
        <path id="Caminho_19" data-name="Caminho 19" d="M480.062,373.242a3.843,3.843,0,0,0,.822-.088,2.238,2.238,0,0,0,.729-.287,1.619,1.619,0,0,0,.521-.528,1.525,1.525,0,0,0,.2-.809,1.255,1.255,0,0,0-.127-.581,1.5,1.5,0,0,0-.347-.442,3,3,0,0,0-.521-.361c-.2-.112-.422-.229-.662-.354-.2-.107-.412-.223-.621-.348a2.446,2.446,0,0,1-.562-.46,2.214,2.214,0,0,1-.4-.649,2.341,2.341,0,0,1-.154-.9,2.616,2.616,0,0,1,.234-1.109,2.428,2.428,0,0,1,.688-.875,3.256,3.256,0,0,1,1.117-.568,5.256,5.256,0,0,1,1.518-.2,4.609,4.609,0,0,1,.761.06,5.357,5.357,0,0,1,.662.154,4.949,4.949,0,0,1,.529.195,1.8,1.8,0,0,1,.334.18l-.6,1.017a2.156,2.156,0,0,0-.729-.341,4.027,4.027,0,0,0-1.183-.154,3.459,3.459,0,0,0-.8.086,1.841,1.841,0,0,0-.635.274,1.427,1.427,0,0,0-.428.474,1.6,1.6,0,0,0-.054,1.271,1.358,1.358,0,0,0,.3.415,2.026,2.026,0,0,0,.462.328q.273.147.594.308.4.2.755.408a2.783,2.783,0,0,1,.622.487,2.123,2.123,0,0,1,.422.656,2.4,2.4,0,0,1,.154.908,2.762,2.762,0,0,1-.288,1.29,2.641,2.641,0,0,1-.789.923,3.558,3.558,0,0,1-1.189.554,5.648,5.648,0,0,1-1.491.187,5.952,5.952,0,0,1-.969-.072,5.366,5.366,0,0,1-.763-.181,4.268,4.268,0,0,1-.555-.221,2.1,2.1,0,0,1-.348-.208l.6-1.055a4.388,4.388,0,0,0,.8.394A3.77,3.77,0,0,0,480.062,373.242Z" transform="translate(-371.02 -364.685)" fill="#fff"/>
        <path id="Caminho_20" data-name="Caminho 20" d="M499.98,374.365a4.27,4.27,0,0,1-1.53-.253,2.918,2.918,0,0,1-1.1-.723,2.991,2.991,0,0,1-.662-1.129,4.708,4.708,0,0,1-.221-1.491,6.942,6.942,0,0,1,.381-2.3,6.14,6.14,0,0,1,1.083-1.939,5.316,5.316,0,0,1,1.691-1.344,4.82,4.82,0,0,1,2.206-.5,5.26,5.26,0,0,1,1.665.214,3.869,3.869,0,0,1,.889.4l-.535,1.068a3.867,3.867,0,0,0-2.085-.561,3.2,3.2,0,0,0-1.658.434,4.173,4.173,0,0,0-1.244,1.124,5.182,5.182,0,0,0-.775,1.551,5.723,5.723,0,0,0-.267,1.7q0,2.608,2.259,2.607a5.06,5.06,0,0,0,.862-.066,6.348,6.348,0,0,0,.676-.154,3.5,3.5,0,0,0,.521-.195l.4-.186.161,1.122a3.505,3.505,0,0,1-.421.2,5.312,5.312,0,0,1-.608.2,6.663,6.663,0,0,1-1.685.213Z" transform="translate(-378.118 -364.685)" fill="#fff"/>
        <path id="Caminho_21" data-name="Caminho 21" d="M514.743,364.685a4.06,4.06,0,0,1,1.357.221,2.877,2.877,0,0,1,1.07.662,3,3,0,0,1,.695,1.1,4.4,4.4,0,0,1,.247,1.543,7.379,7.379,0,0,1-.341,2.206,6.33,6.33,0,0,1-1.01,1.973,5.217,5.217,0,0,1-1.671,1.423,4.8,4.8,0,0,1-2.34.548,3.992,3.992,0,0,1-1.364-.221,2.886,2.886,0,0,1-1.063-.661,3,3,0,0,1-.695-1.1,4.4,4.4,0,0,1-.248-1.545,7.554,7.554,0,0,1,.335-2.2,6.111,6.111,0,0,1,1.009-1.978,5.33,5.33,0,0,1,1.678-1.424A4.8,4.8,0,0,1,514.743,364.685Zm-1.857,8.557a3.077,3.077,0,0,0,1.617-.435,4.1,4.1,0,0,0,1.224-1.129,5.337,5.337,0,0,0,.768-1.564,5.861,5.861,0,0,0,.267-1.738,3.077,3.077,0,0,0-.514-1.879,1.911,1.911,0,0,0-1.638-.689,3.069,3.069,0,0,0-1.624.434,4.17,4.17,0,0,0-1.217,1.13,5.341,5.341,0,0,0-.768,1.565,5.871,5.871,0,0,0-.267,1.738,3.076,3.076,0,0,0,.514,1.879A1.912,1.912,0,0,0,512.886,373.242Z" transform="translate(-382.894 -364.685)" fill="#fff"/>
        <path id="Caminho_22" data-name="Caminho 22" d="M530.865,374.291c-.16-.518-.352-1.1-.575-1.765s-.466-1.329-.729-2.006-.533-1.334-.809-1.972a17.332,17.332,0,0,0-.816-1.664l-1.778,7.406h-1.27l2.22-9.266h1.109q.428.723.877,1.639t.855,1.877q.408.964.756,1.886t.575,1.657l1.658-7.059h1.269L532,374.291Z" transform="translate(-388.627 -364.811)" fill="#fff"/>
        <path id="Caminho_23" data-name="Caminho 23" d="M540.437,374.291l2.219-9.266h5.415l-.254,1.084h-4.131L543,368.943h3.664L546.413,370h-3.65l-1.029,4.292Z" transform="translate(-394.376 -364.811)" fill="#fff"/>
        <path id="Caminho_24" data-name="Caminho 24" d="M554.514,365.025h1.3l-2.219,9.266h-1.3Z" transform="translate(-398.76 -364.811)" fill="#fff"/>
        <path id="Caminho_25" data-name="Caminho 25" d="M559.837,371.91l-1.31,2.381H557.11q1.5-2.7,2.921-4.974t2.813-4.292h1.271q.2,1,.367,2.025t.328,2.147q.161,1.123.308,2.38t.307,2.714h-1.31q-.067-.6-.12-1.211c-.036-.405-.076-.794-.12-1.17Zm3.917-1.043q-.107-1.083-.247-2.152t-.328-2.207q-.468.683-1.163,1.759t-1.577,2.6Z" transform="translate(-400.54 -364.811)" fill="#fff"/>
        <path id="Caminho_26" data-name="Caminho 26" d="M578.825,374.291c-.16-.518-.352-1.1-.576-1.765s-.466-1.329-.728-2.006-.533-1.334-.809-1.972a17.6,17.6,0,0,0-.816-1.664l-1.777,7.406h-1.271l2.22-9.266h1.109q.428.723.877,1.639t.855,1.877q.408.964.755,1.886t.575,1.657l1.657-7.059h1.27l-2.206,9.266Z" transform="translate(-406.359 -364.811)" fill="#fff"/>
        <path id="Caminho_27" data-name="Caminho 27" d="M592.759,374.365a.754.754,0,0,0-.113.147c-.031.054-.065.107-.1.16a1.275,1.275,0,0,1,.4.322.776.776,0,0,1,.133.481,1.057,1.057,0,0,1-.414.908,1.867,1.867,0,0,1-1.136.309,2.921,2.921,0,0,1-.649-.061,2.179,2.179,0,0,1-.434-.141l.307-.735a1.552,1.552,0,0,0,.281.1,1.691,1.691,0,0,0,.428.045.839.839,0,0,0,.375-.073.268.268,0,0,0,.146-.261.282.282,0,0,0-.107-.241,2.325,2.325,0,0,0-.36-.2l-.08-.04q.093-.16.24-.388c.1-.151.2-.289.294-.415a2.948,2.948,0,0,1-2-1.143,3.954,3.954,0,0,1-.662-2.373,6.938,6.938,0,0,1,.381-2.3,6.141,6.141,0,0,1,1.082-1.939,5.315,5.315,0,0,1,1.692-1.344,4.82,4.82,0,0,1,2.206-.5,5.268,5.268,0,0,1,1.665.214,3.861,3.861,0,0,1,.889.4l-.534,1.068a3.867,3.867,0,0,0-2.086-.561,3.2,3.2,0,0,0-1.657.434,4.174,4.174,0,0,0-1.244,1.124,5.165,5.165,0,0,0-.776,1.551,5.726,5.726,0,0,0-.267,1.7q0,2.608,2.26,2.607a5.078,5.078,0,0,0,.862-.066,6.4,6.4,0,0,0,.675-.154,3.5,3.5,0,0,0,.521-.195l.4-.186.161,1.122a3.489,3.489,0,0,1-.421.2,5.369,5.369,0,0,1-.608.2,6.673,6.673,0,0,1-1.685.213Z" transform="translate(-412.445 -364.685)" fill="#fff"/>
        <path id="Caminho_28" data-name="Caminho 28" d="M603.471,371.91l-1.31,2.381h-1.417q1.5-2.7,2.921-4.974t2.814-4.292h1.27q.2,1,.368,2.025t.327,2.147q.16,1.123.308,2.38t.308,2.714h-1.31q-.067-.6-.12-1.211c-.035-.405-.076-.794-.12-1.17Zm3.917-1.043q-.107-1.083-.247-2.152t-.328-2.207q-.468.683-1.163,1.759t-1.577,2.6Z" transform="translate(-416.673 -364.811)" fill="#fff"/>
      </g>
      <g id="Grupo_5" data-name="Grupo 5" transform="translate(251.345 11.892)">
        <g id="Grupo_3" data-name="Grupo 3" transform="translate(3.499 2.435)">
          <path id="Caminho_29" data-name="Caminho 29" d="M604.976,246.564a2.253,2.253,0,0,1,1.3.333,1.111,1.111,0,0,1,.481.976,1.61,1.61,0,0,1-.382,1.092,2.122,2.122,0,0,1-1.069.633c.059.1.128.236.207.4s.161.338.244.533.165.4.244.607.149.413.208.611h-.734q-.1-.282-.214-.57c-.074-.192-.149-.377-.226-.556s-.153-.343-.229-.5-.147-.292-.211-.41c-.064,0-.129.009-.193.011s-.128,0-.192,0h-.57l-.482,2.021h-.717l1.214-5.064a3.9,3.9,0,0,1,.658-.1C604.549,246.572,604.769,246.564,604.976,246.564Zm-.089.607a3.681,3.681,0,0,0-.636.03l-.466,1.94h.437a4.469,4.469,0,0,0,.621-.045,1.856,1.856,0,0,0,.581-.174,1.13,1.13,0,0,0,.43-.362,1.045,1.045,0,0,0,.167-.619.626.626,0,0,0-.314-.592A1.658,1.658,0,0,0,604.887,247.171Z" transform="translate(-602.445 -246.564)" fill="#002e75"/>
        </g>
        <g id="Grupo_4" data-name="Grupo 4">
          <path id="Caminho_30" data-name="Caminho 30" d="M607.471,248.147h-.315a4.816,4.816,0,1,1-1.411-3.4,4.8,4.8,0,0,1,1.411,3.4h.63a5.446,5.446,0,1,0-5.445,5.446,5.446,5.446,0,0,0,5.445-5.446Z" transform="translate(-596.894 -242.701)" fill="#002e75"/>
        </g>
      </g>
    </g>
  </g>
</svg>
