<svg xmlns="http://www.w3.org/2000/svg" xmlns:xlink="http://www.w3.org/1999/xlink" width="26.763" height="21.436" viewBox="0 0 26.763 21.436">
  <defs>
    <clipPath id="clip-path">
      <rect id="Retângulo_1046" data-name="Retângulo 1046" width="18.566" height="24.684" fill="#0e5edc"/>
    </clipPath>
  </defs>
  <g id="Grupo_2701" data-name="Grupo 2701" transform="translate(24.5) rotate(83)">
    <g id="Grupo_2700" data-name="Grupo 2700" transform="translate(0)">
      <g id="Grupo_2699" data-name="Grupo 2699" clip-path="url(#clip-path)">
        <path id="Caminho_1641" data-name="Caminho 1641" d="M.3,6.444A8.688,8.688,0,0,0,12.106,16.687l4.521,7.83,1.806-1.043-4.521-7.83a8.69,8.69,0,0,0,2.311-11.3A8.689,8.689,0,0,0,4.35,1.166,8.635,8.635,0,0,0,.3,6.444ZM8.688,2.086a6.63,6.63,0,0,1,5.728,3.3A6.609,6.609,0,0,1,8.7,15.3,6.608,6.608,0,0,1,2.315,6.983a6.611,6.611,0,0,1,6.374-4.9Zm0,0" transform="translate(0 0)" fill="#0e5edc"/>
      </g>
    </g>
  </g>
</svg>
