<svg xmlns="http://www.w3.org/2000/svg" width="52.328" height="69.771" viewBox="0 0 52.328 69.771">
  <g id="Grupo_3138" data-name="Grupo 3138" transform="translate(-852 -368.575)">
    <g id="Grupo_2980" data-name="Grupo 2980" transform="translate(-278 -99)">
      <g id="Grupo_2940" data-name="Grupo 2940" transform="translate(5 17)">
        <g id="Grupo_2941" data-name="Grupo 2941">
          <g id="Grupo_214" data-name="Grupo 214" transform="translate(1125 450.575)">
            <path id="Caminho_37" data-name="Caminho 37" d="M318.9,177a26.289,26.289,0,0,0-26.164,26.353c0,20.649,23.7,41.97,24.713,42.865a2.186,2.186,0,0,0,2.9,0c1.008-.9,24.713-22.219,24.713-42.868A26.289,26.289,0,0,0,318.9,177Zm0,40.7a14.535,14.535,0,1,1,14.535-14.536A14.552,14.552,0,0,1,318.9,217.7Zm0,0" transform="translate(-292.735 -177)"/>
          </g>
        </g>
      </g>
    </g>
    <ellipse id="Elipse_51" data-name="Elipse 51" cx="15.5" cy="15" rx="15.5" ry="15" transform="translate(863 380)"/>
  </g>
</svg>
