<svg xmlns="http://www.w3.org/2000/svg" width="7.587" height="9.695" viewBox="0 0 7.587 9.695">
  <g id="Grupo_3001" data-name="Grupo 3001" transform="translate(0)">
    <path id="Caminho_1653" data-name="Caminho 1653" d="M460.348,99.265v2.344h2.344Zm0,0" transform="translate(-455.29 -99.08)" fill="#0440a0"/>
    <path id="Caminho_1654" data-name="Caminho 1654" d="M264.742,95.09a.316.316,0,0,1-.316-.316V91.929h-4.11a.316.316,0,0,0-.316.316v9.063a.316.316,0,0,0,.316.316h6.955a.316.316,0,0,0,.316-.316V95.09Zm-.632,4.637h-2.529a.316.316,0,0,1,0-.632h2.529a.316.316,0,0,1,0,.632Zm1.9-1.265h-4.426a.316.316,0,1,1,0-.632h4.426a.316.316,0,1,1,0,.632Zm0-1.265h-4.426a.316.316,0,1,1,0-.632h4.426a.316.316,0,1,1,0,.632Zm0,0" transform="translate(-260 -91.929)" fill="#0440a0"/>
  </g>
</svg>
