<svg xmlns="http://www.w3.org/2000/svg" width="27.638" height="27.638" viewBox="0 0 27.638 27.638">
  <path id="Icon_ionic-ios-checkmark-circle" data-name="Icon ionic-ios-checkmark-circle" d="M17.194,3.375A13.819,13.819,0,1,0,31.013,17.194,13.817,13.817,0,0,0,17.194,3.375Zm7.076,10L15.387,22.3H15.38a1.2,1.2,0,0,1-.771.365,1.163,1.163,0,0,1-.777-.379l-3.72-3.72a.265.265,0,0,1,0-.379L11.294,17a.257.257,0,0,1,.372,0l2.95,2.95,8.105-8.165a.262.262,0,0,1,.186-.08h0a.241.241,0,0,1,.186.08l1.163,1.2A.262.262,0,0,1,24.269,13.374Z" transform="translate(-3.375 -3.375)" fill="#047d10"/>
</svg>
