<svg id="Grupo_222" data-name="Grupo 222" xmlns="http://www.w3.org/2000/svg" width="35.909" height="36.561" viewBox="0 0 35.909 36.561">
  <path id="Caminho_53" data-name="Caminho 53" d="M83.3,381.158l-14.38-7.614a1.153,1.153,0,0,0-1.186.069l-11,7.614a1.143,1.143,0,0,0,.649,2.082H82.765a1.142,1.142,0,0,0,.537-2.15Z" transform="translate(-52.232 -346.748)" fill="#fff"/>
  <path id="Caminho_54" data-name="Caminho 54" d="M282.76,226.638a1.144,1.144,0,0,0-1.766-.692l-11,7.614a1.141,1.141,0,0,0,.117,1.947l14.377,7.614a1.146,1.146,0,0,0,.535.135,1.127,1.127,0,0,0,.692-.235,1.144,1.144,0,0,0,.425-1.156Z" transform="translate(-250.26 -209.624)" fill="#fff"/>
  <path id="Caminho_55" data-name="Caminho 55" d="M37.415,192.8a1.145,1.145,0,0,0-1.092-.8H25.894a47.689,47.689,0,0,1-5.857,8,3.426,3.426,0,0,1-5.1,0c-.446-.5-1.136-1.289-1.926-2.271l-2.765,12.444a1.142,1.142,0,0,0,1.115,1.389,1.131,1.131,0,0,0,.651-.2l24.96-17.282A1.138,1.138,0,0,0,37.415,192.8Z" transform="translate(-9.489 -178.29)" fill="#fff"/>
  <path id="Caminho_56" data-name="Caminho 56" d="M8,20.565a1.148,1.148,0,0,0,.85-.379C9.579,19.37,16,12.1,16,8A8,8,0,0,0,0,8C0,12.1,6.416,19.37,7.148,20.186A1.148,1.148,0,0,0,8,20.565ZM4.57,8A3.428,3.428,0,1,1,8,11.425,3.429,3.429,0,0,1,4.57,8Z" fill="#fff"/>
</svg>
