<svg xmlns="http://www.w3.org/2000/svg" width="35.478" height="35.478" viewBox="0 0 35.478 35.478">
  <g id="Grupo_223" data-name="Grupo 223" transform="translate(0)">
    <path id="Caminho_57" data-name="Caminho 57" d="M384.2,310.956h-1.626a4.073,4.073,0,0,0-7.834,0h-1.626A1.117,1.117,0,0,0,372,312.065v2.217a2.6,2.6,0,0,0,2.587,2.587h8.13a2.6,2.6,0,0,0,2.587-2.587v-2.217a1.117,1.117,0,0,0-1.109-1.109Zm0,0" transform="translate(-366.087 -308)" fill="#fff"/>
    <path id="Caminho_58" data-name="Caminho 58" d="M329.065,356h-.37v1.848a4.063,4.063,0,0,1-4.065,4.065H316.5a4.063,4.063,0,0,1-4.065-4.065V356h-.37A4.063,4.063,0,0,0,308,360.065v18.478a4.063,4.063,0,0,0,4.065,4.065h9.742a12.918,12.918,0,0,1-1.227-5.174h-7.036a1.109,1.109,0,1,1,0-2.217H320.7a13.521,13.521,0,0,1,.65-2.587h-7.805a1.109,1.109,0,1,1,0-2.217h8.869a12.877,12.877,0,0,1,2.055-2.587H313.543a1.109,1.109,0,1,1,0-2.217H327.5a12.744,12.744,0,0,1,5.632-1.463v-4.08A4.063,4.063,0,0,0,329.065,356Zm0,0" transform="translate(-308 -351.565)" fill="#fff"/>
    <path id="Caminho_59" data-name="Caminho 59" d="M485.978,476a9.978,9.978,0,1,0,9.978,9.978A9.989,9.989,0,0,0,485.978,476Zm4.065,11.456h-2.587v2.587a1.478,1.478,0,0,1-2.957,0v-2.587h-2.587a1.478,1.478,0,1,1,0-2.957H484.5v-2.587a1.478,1.478,0,1,1,2.957,0V484.5h2.587a1.478,1.478,0,0,1,0,2.957Zm0,0" transform="translate(-460.478 -460.478)" fill="#fff"/>
  </g>
</svg>
