<svg xmlns="http://www.w3.org/2000/svg" width="35.909" height="36.05" viewBox="0 0 35.909 36.05">
  <g id="Grupo_220" data-name="Grupo 220" transform="translate(0 0)">
    <path id="Caminho_43" data-name="Caminho 43" d="M467.268,308h-2.64v3.231h-2.112V308h-2.64v8.192h7.393Zm0,0" transform="translate(-445.617 -308)" fill="#fff"/>
    <path id="Caminho_44" data-name="Caminho 44" d="M568.518,308h-2.64v3.231h-2.112V308h-2.64v8.192h7.393Zm0,0" transform="translate(-537.362 -308)" fill="#fff"/>
    <path id="Caminho_45" data-name="Caminho 45" d="M366.018,308h-2.64v3.231h-2.112V308h-2.64v8.192h7.393Zm0,0" transform="translate(-353.872 -308)" fill="#fff"/>
    <path id="Caminho_46" data-name="Caminho 46" d="M467.268,500h-2.64v3.231h-2.112V500h-2.64v8.192h7.393Zm0,0" transform="translate(-445.617 -481.975)" fill="#fff"/>
    <path id="Caminho_47" data-name="Caminho 47" d="M568.518,500h-2.64v3.231h-2.112V500h-2.64v8.192h7.393Zm0,0" transform="translate(-537.362 -481.975)" fill="#fff"/>
    <path id="Caminho_48" data-name="Caminho 48" d="M366.018,500h-2.64v3.231h-2.112V500h-2.64v8.192h7.393Zm0,0" transform="translate(-353.872 -481.975)" fill="#fff"/>
    <path id="Caminho_49" data-name="Caminho 49" d="M341.268,357.5v5.658H310.64V357.5H308v31.4h2.64v-3.831h30.628V388.9h2.64V357.5Zm0,23.682H310.64V367.046h30.628Zm0,0" transform="translate(-308 -352.853)" fill="#fff"/>
  </g>
</svg>
