<svg id="Grupo_218" data-name="Grupo 218" xmlns="http://www.w3.org/2000/svg" xmlns:xlink="http://www.w3.org/1999/xlink" width="40.451" height="28.447" viewBox="0 0 40.451 28.447">
  <defs>
    <clipPath id="clip-path">
      <rect id="Retângulo_27" data-name="Retângulo 27" width="40.451" height="28.447" fill="#fff"/>
    </clipPath>
  </defs>
  <g id="Grupo_217" data-name="Grupo 217" transform="translate(0 0)" clip-path="url(#clip-path)">
    <path id="Caminho_38" data-name="Caminho 38" d="M181.3,293.905V276.69a1.732,1.732,0,0,1,1.732-1.732h17.206a1.732,1.732,0,0,1,1.732,1.732v17.215a.577.577,0,0,1-.577.577H181.877a.577.577,0,0,1-.577-.577Zm13.894,5.9a3.592,3.592,0,1,1-3.592-3.593,3.592,3.592,0,0,1,3.592,3.593Zm-1.8,0a1.8,1.8,0,1,0-1.8,1.8,1.8,1.8,0,0,0,1.8-1.8Zm-4.89-3.593h-8.05a.578.578,0,0,0-.577.577v1.752a.577.577,0,0,0,.577.577h6.452a4.74,4.74,0,0,1,1.6-2.906ZM213.99,299.8a3.592,3.592,0,1,1-3.592-3.593,3.592,3.592,0,0,1,3.592,3.593Zm-1.8,0a1.8,1.8,0,1,0-1.8,1.8,1.8,1.8,0,0,0,1.8-1.8Zm8.147-3.015v1.752a.577.577,0,0,1-.577.577H215.09a4.741,4.741,0,0,0-9.384,0h-9.412a4.74,4.74,0,0,0-1.6-2.906h8.925V279.7a1.155,1.155,0,0,1,1.155-1.155h5.451a4.619,4.619,0,0,1,3.828,2.034l3.514,5.2a4.62,4.62,0,0,1,.791,2.585v7.846h1.405a.578.578,0,0,1,.577.577Zm-5.857-10.874-2.81-3.993a.577.577,0,0,0-.472-.245h-4.383a.577.577,0,0,0-.577.577v3.993a.577.577,0,0,0,.577.577h7.193a.578.578,0,0,0,.472-.91Zm0,0" transform="translate(-179.888 -274.961)" fill="#fff"/>
  </g>
</svg>
