<svg xmlns="http://www.w3.org/2000/svg" width="35.49" height="30.167" viewBox="0 0 35.49 30.167">
  <g id="Grupo_224" data-name="Grupo 224" transform="translate(0)">
    <path id="Caminho_60" data-name="Caminho 60" d="M452.214,382.754c3.354,0,6.074-3.3,6.074-7.377S457.395,368,452.214,368s-6.073,3.3-6.073,7.377,2.719,7.377,6.073,7.377Zm0,0" transform="translate(-434.469 -368)" fill="#fff"/>
    <path id="Caminho_61" data-name="Caminho 61" d="M421.835,512.465c-.112-7.1-1.039-9.119-8.132-10.4a4.983,4.983,0,0,1-6.652,0c-7.016,1.266-8,3.259-8.128,10.169-.01.564-.015.594-.017.528,0,.123,0,.35,0,.746,0,0,1.689,3.4,11.47,3.4s11.471-3.4,11.471-3.4v-.552a4.505,4.505,0,0,1-.013-.492Zm0,0" transform="translate(-392.632 -486.746)" fill="#fff"/>
    <path id="Caminho_62" data-name="Caminho 62" d="M555.606,392.7c2.724,0,4.933-2.682,4.933-5.991s-.725-5.992-4.933-5.992a7.043,7.043,0,0,0-1.841.218,12.093,12.093,0,0,1,1.105,5.7,10.118,10.118,0,0,1-1.515,5.4,4.225,4.225,0,0,0,2.251.661Zm0,0" transform="translate(-529.432 -379.268)" fill="#fff"/>
    <path id="Caminho_63" data-name="Caminho 63" d="M580.585,498.056c-.091-5.764-.844-7.407-6.6-8.447a3.454,3.454,0,0,1-2.7,1.033c-.078,0-.154,0-.229-.006a7.574,7.574,0,0,1,3.1,2.4c1.391,1.907,1.711,4.469,1.777,8.233,3.876-.766,4.67-2.365,4.67-2.365,0-.208,0-.351,0-.449a3.172,3.172,0,0,1-.011-.4Zm0,0" transform="translate(-545.106 -475.713)" fill="#fff"/>
    <path id="Caminho_64" data-name="Caminho 64" d="M387.3,392.7a4.226,4.226,0,0,0,2.251-.661,10.113,10.113,0,0,1-1.515-5.4,12.093,12.093,0,0,1,1.1-5.705,7.037,7.037,0,0,0-1.84-.218c-4.208,0-4.933,2.683-4.933,5.992s2.209,5.991,4.933,5.991Zm0,0" transform="translate(-377.979 -379.268)" fill="#fff"/>
    <path id="Caminho_65" data-name="Caminho 65" d="M353.545,490.637c-.075,0-.15.006-.229.006a3.454,3.454,0,0,1-2.7-1.033c-5.76,1.04-6.513,2.682-6.6,8.446a3.734,3.734,0,0,1-.011.4c0,.1,0,.241,0,.449,0,0,.795,1.6,4.67,2.365.066-3.764.386-6.326,1.777-8.233a7.576,7.576,0,0,1,3.1-2.4Zm0,0" transform="translate(-344 -475.713)" fill="#fff"/>
  </g>
</svg>
