<svg xmlns="http://www.w3.org/2000/svg" xmlns:xlink="http://www.w3.org/1999/xlink" width="770.794" height="343.554" viewBox="0 0 770.794 343.554">
  <defs>
    <linearGradient id="linear-gradient" y1="0.5" x2="1" y2="0.5" gradientUnits="objectBoundingBox">
      <stop offset="0" stop-color="#dae3fe"/>
      <stop offset="1" stop-color="#e9effd"/>
    </linearGradient>
    <linearGradient id="linear-gradient-6" x1="0.518" y1="-7.797" x2="0.509" y2="-3.747" gradientUnits="objectBoundingBox">
      <stop offset="0" stop-color="#09005d"/>
      <stop offset="1" stop-color="#1a0f91"/>
    </linearGradient>
    <linearGradient id="linear-gradient-7" x1="0.257" y1="0.241" x2="1.535" y2="1.603" xlink:href="#linear-gradient-6"/>
    <linearGradient id="linear-gradient-8" x1="0.396" y1="0.632" x2="2.196" y2="-1.638" gradientUnits="objectBoundingBox">
      <stop offset="0" stop-color="#4042e2"/>
      <stop offset="1" stop-color="#4f52ff"/>
    </linearGradient>
    <linearGradient id="linear-gradient-9" x1="1.015" y1="-1.026" x2="0.591" y2="0.231" xlink:href="#linear-gradient-8"/>
    <linearGradient id="linear-gradient-10" x1="1.276" y1="-0.343" x2="-0.417" y2="1.496" gradientUnits="objectBoundingBox">
      <stop offset="0" stop-color="#f99300"/>
      <stop offset="0.996" stop-color="#f4b25b"/>
    </linearGradient>
    <linearGradient id="linear-gradient-11" x1="4.167" y1="-3.099" x2="1.915" y2="-0.888" xlink:href="#linear-gradient-6"/>
    <linearGradient id="linear-gradient-12" x1="18.311" y1="-8.738" x2="14.642" y2="-6.831" xlink:href="#linear-gradient-6"/>
    <linearGradient id="linear-gradient-13" x1="0" y1="0.5" x2="1" y2="0.5" xlink:href="#linear-gradient-6"/>
    <linearGradient id="linear-gradient-14" x1="0.246" y1="1.003" x2="0.907" y2="-0.309" xlink:href="#linear-gradient-8"/>
    <linearGradient id="linear-gradient-15" x1="2.232" y1="-1.636" x2="1.576" y2="-0.827" xlink:href="#linear-gradient-6"/>
    <linearGradient id="linear-gradient-17" x1="0.323" y1="1.117" x2="0.658" y2="-0.05" xlink:href="#linear-gradient-8"/>
    <linearGradient id="linear-gradient-18" x1="1.85" y1="-1.085" x2="1.348" y2="-0.495" xlink:href="#linear-gradient-6"/>
    <linearGradient id="linear-gradient-20" x1="0.8" y1="0.023" x2="1.747" y2="-1.479" xlink:href="#linear-gradient-8"/>
    <linearGradient id="linear-gradient-21" x1="2.634" y1="-1.855" x2="2.001" y2="-1.156" xlink:href="#linear-gradient-6"/>
    <linearGradient id="linear-gradient-22" x1="0.201" y1="1.103" x2="0.899" y2="-0.303" xlink:href="#linear-gradient-10"/>
    <linearGradient id="linear-gradient-23" x1="2.232" y1="-1.35" x2="-0.484" y2="1.558" xlink:href="#linear-gradient-8"/>
  </defs>
  <g id="Grupo_2666" data-name="Grupo 2666" transform="translate(-743.217 -326.446)">
    <g id="Grupo_2664" data-name="Grupo 2664" transform="translate(810.943 -141.091)">
      <g id="Grupo_2541" data-name="Grupo 2541" transform="translate(-67.727 467.537)">
        <path id="Caminho_710" data-name="Caminho 710" d="M-207.2,226.931a179.351,179.351,0,0,0-6.174-82.213,80.869,80.869,0,0,0-22.645-34.771c-6.8-6.221-13.849-12.81-21.2-18.09-6.188-4.442-13.695-7.038-20.206-11.177-13.632-8.665-26.375-19.312-40.685-26.456-23.741-11.853-50.374-12.97-75.465-7.31-26.12,5.893-49.625,18.328-73.235,32.44-9.1,5.441-18.253,11.061-28.156,13.97-7.8,2.293-15.9,2.847-23.945,2.886-17.2.083-34.15-3.756-51.229-5.6-20.522-2.211-44.28,6.013-58.081,25.159a54.78,54.78,0,0,0-10.131,33.868c.594,12.607,2.191,26.088,5.884,38.028,2.861,9.248,6.724,20.971,11.777,28.825,1.212,1.884-33.971-20.605-34.355-19.175-1.505,5.89,13.993,27.58,11.093,40.438-4.076,18.07,11.425,66.442,21.671,84.458,15.264,26.838,41.888,22.568,65.786,22.568h269.575c14.059,0,27.616-6.03,38.013-16.923l.163-.171c10.667-11.177,21.329-23.28,27.316-38.8,3.627-9.4,4.679-18.96,7.124-28.6C-211.443,248.981-208.986,238.025-207.2,226.931Z" transform="translate(787.945 -34.032)" fill="url(#linear-gradient)"/>
        <g id="Grupo_2469" data-name="Grupo 2469" transform="translate(0 0)">
          <g id="Illustration" transform="translate(0 0)">
            <g id="Grupo_2435" data-name="Grupo 2435" transform="translate(131.964 0)">
              <g id="Grupo_2430" data-name="Grupo 2430" transform="translate(0)">
                <g id="Grupo_2427" data-name="Grupo 2427" transform="translate(91.257)">
                  <path id="Caminho_607" data-name="Caminho 607" d="M651.708,444.123c-5.68-27.035-19.658-49.554-37.465-63.779A78.4,78.4,0,0,1,585.217,329.1q-.4-3.184-1.078-6.407c-6.83-32.515-32.29-54.688-56.865-49.526s-38.961,35.706-32.13,68.221a77.813,77.813,0,0,0,6.361,18.5,78.761,78.761,0,0,1,5.145,57.884c-5.242,17.16-6.276,36.981-2.018,57.251,6.351,30.23,23.077,54.815,43.931,68.47a77.187,77.187,0,0,1,20.319,19.373c9.157,12.7,23.158,19.665,36.955,16.767,14.884-3.127,25.365-16.859,27.73-33.9a82.35,82.35,0,0,1,9.153-27.483C653.567,497.977,657.451,471.458,651.708,444.123Z" transform="translate(-493.444 -272.419)" fill="#91b3fa"/>
                  <path id="Caminho_608" data-name="Caminho 608" d="M659.5,385.891c7.725,20.815,14.774,41.86,21.6,62.98,1.71,5.279,3.334,10.585,4.976,15.886l2.461,7.951,2.4,7.972c1.576,5.321,3.225,10.62,4.741,15.959l4.549,16.016c2.9,10.716,5.882,21.406,8.579,32.176,1.356,5.382,2.816,10.737,4.063,16.148l3.813,16.21c4.866,21.663,9.19,43.459,12.4,65.43l-.945.148-3.03-16.348-.748-4.087-.85-4.069L721.8,610.13l-1.7-8.135c-.562-2.712-1.224-5.4-1.832-8.107-1.25-5.4-2.458-10.805-3.744-16.195-5.282-21.526-10.85-42.982-16.86-64.321-3.087-10.646-6.082-21.318-9.242-31.943l-2.349-7.975-2.415-7.956c-1.607-5.3-3.215-10.61-4.875-15.9q-4.847-15.907-9.932-31.743Q663.838,402,658.6,386.211Z" transform="translate(-577.847 -353.394)" fill="#bdd0fb"/>
                  <g id="Grupo_2426" data-name="Grupo 2426" transform="translate(41.491 14.108)" opacity="0.5">
                    <path id="Caminho_609" data-name="Caminho 609" d="M537.378,402.2a.805.805,0,0,1-.558-.4c-14.492-26.3-12.158-46.078-7.648-58.043,4.9-13,13.13-19.65,13.478-19.927a.806.806,0,0,1,1,1.261,48.134,48.134,0,0,0-13,19.316c-4.363,11.635-6.59,30.9,7.581,56.615a.806.806,0,0,1-.853,1.182Z" transform="translate(-525.726 -323.656)" fill="#bdd0fb"/>
                  </g>
                </g>
                <g id="Grupo_2429" data-name="Grupo 2429" transform="translate(0 148.269)">
                  <path id="Caminho_610" data-name="Caminho 610" d="M303.7,741.188c-10.088-13.661-23.65-22.682-37.224-26.093a48.275,48.275,0,0,1-29.309-21.241q-1.04-1.676-2.241-3.305c-12.133-16.429-32.01-22.332-44.4-13.184s-12.593,29.882-.46,46.311a47.925,47.925,0,0,0,8.284,8.717,48.522,48.522,0,0,1,17.686,31.035,71.176,71.176,0,0,0,13.528,32.507c11.28,15.275,26.9,24.75,42.031,27.067A47.447,47.447,0,0,1,287.9,828.65c8.358,4.762,17.951,5.087,24.906-.048,7.5-5.54,9.834-15.885,6.792-26.008a50.653,50.653,0,0,1-1.929-17.69C318.526,770.809,313.9,755,303.7,741.188Z" transform="translate(-181.106 -673.058)" fill="#bdd0fb"/>
                  <path id="Caminho_611" data-name="Caminho 611" d="M270.368,735.943c9.637,9.663,18.957,19.627,28.172,29.689,2.305,2.514,4.57,5.065,6.842,7.609l3.408,3.816,3.377,3.845c2.241,2.572,4.518,5.112,6.73,7.71l6.637,7.791c4.358,5.25,8.761,10.463,13.022,15.794,2.134,2.662,4.319,5.283,6.4,7.988l6.277,8.087c8.259,10.865,16.25,21.943,23.666,33.4l-.49.324-5.875-8.363-1.463-2.093-1.516-2.057-3.039-4.108-3.031-4.112c-1.008-1.372-2.066-2.708-3.1-4.063-2.079-2.7-4.137-5.412-6.234-8.1q-12.685-16.025-25.869-31.646c-4.447-5.163-8.849-10.363-13.332-15.5L307.6,778.1l-3.384-3.83c-2.254-2.555-4.509-5.11-6.789-7.642q-6.775-7.654-13.666-15.208-6.853-7.587-13.816-15.074Z" transform="translate(-243.697 -717.362)" fill="url(#linear-gradient)"/>
                  <g id="Grupo_2428" data-name="Grupo 2428" transform="translate(7.079 10.601)" opacity="0.5">
                    <path id="Caminho_612" data-name="Caminho 612" d="M227.834,756.36a.527.527,0,0,1-.447-.065c-16.4-10.87-21.049-23.065-22.062-31.382A31.963,31.963,0,0,1,207.1,709.25a.528.528,0,0,1,.966.428,31.533,31.533,0,0,0-1.687,15.164c1,8.081,5.555,19.944,21.59,30.573a.528.528,0,0,1-.137.946Z" transform="translate(-205.065 -708.936)" fill="url(#linear-gradient)"/>
                  </g>
                </g>
              </g>
              <g id="Grupo_2434" data-name="Grupo 2434" transform="translate(267.686 12.144)">
                <g id="Grupo_2431" data-name="Grupo 2431" transform="translate(0 0)">
                  <path id="Caminho_613" data-name="Caminho 613" d="M1567.358,499.967c5.129-24.413,17.751-44.749,33.832-57.594A70.8,70.8,0,0,0,1627.4,396.1q.364-2.875.974-5.786c6.168-29.361,29.159-49.385,51.351-44.722s35.182,32.243,29.014,61.6A70.278,70.278,0,0,1,1703,423.9a71.126,71.126,0,0,0-4.647,52.27,104.352,104.352,0,0,1,1.823,51.7c-5.735,27.3-20.839,49.5-39.67,61.83a69.694,69.694,0,0,0-18.348,17.494c-8.269,11.467-20.912,17.758-33.372,15.14-13.441-2.823-22.905-15.224-25.041-30.609a74.367,74.367,0,0,0-8.265-24.817C1565.68,548.6,1562.172,524.651,1567.358,499.967Z" transform="translate(-1564.97 -344.914)" fill="#bdd0fb"/>
                  <path id="Caminho_614" data-name="Caminho 614" d="M1755.013,447.382c-6.975,18.8-13.342,37.8-19.509,56.872-1.544,4.767-3.011,9.558-4.494,14.345l-2.222,7.18-2.163,7.2c-1.423,4.8-2.913,9.59-4.281,14.411l-4.108,14.462c-2.615,9.676-5.312,19.33-7.747,29.055-1.224,4.861-2.543,9.7-3.669,14.582l-3.444,14.638c-4.394,19.562-8.3,39.244-11.2,59.085l.854.133,2.736-14.762.676-3.691.768-3.674,1.55-7.344,1.535-7.345c.507-2.449,1.106-4.88,1.655-7.321,1.129-4.875,2.22-9.758,3.381-14.624,4.77-19.439,9.8-38.814,15.225-58.083,2.787-9.614,5.492-19.25,8.346-28.845l2.121-7.2,2.181-7.184c1.451-4.791,2.9-9.581,4.4-14.357q4.377-14.365,8.969-28.665c3.014-9.548,6.12-19.07,9.253-28.578Z" transform="translate(-1654.591 -417.105)" fill="url(#linear-gradient)"/>
                  <path id="Caminho_615" data-name="Caminho 615" d="M1977.805,462.113a.728.728,0,0,0,.5-.364c13.086-23.746,10.978-41.609,6.906-52.414-4.424-11.737-11.856-17.745-12.171-18a.728.728,0,0,0-.906,1.139,43.455,43.455,0,0,1,11.743,17.442c3.941,10.506,5.951,27.9-6.845,51.124a.728.728,0,0,0,.771,1.067Z" transform="translate(-1851.637 -377.511)" fill="url(#linear-gradient)"/>
                </g>
                <g id="Grupo_2432" data-name="Grupo 2432" transform="translate(57.135 138.944)">
                  <path id="Caminho_616" data-name="Caminho 616" d="M1858.281,862.031c9.523-12.9,22.326-21.413,35.141-24.633a45.569,45.569,0,0,0,27.668-20.052q.982-1.582,2.116-3.12c11.453-15.51,30.219-21.082,41.912-12.446s11.888,28.209.435,43.719a45.268,45.268,0,0,1-7.82,8.229,45.8,45.8,0,0,0-16.7,29.3,67.2,67.2,0,0,1-12.771,30.688c-10.649,14.42-25.4,23.365-39.679,25.552A44.786,44.786,0,0,0,1873.2,944.6c-7.89,4.5-16.947,4.8-23.512-.046-7.082-5.23-9.283-15-6.411-24.553a47.823,47.823,0,0,0,1.821-16.7C1844.289,889.994,1848.652,875.07,1858.281,862.031Z" transform="translate(-1842.057 -797.714)" fill="#91b3fa"/>
                  <path id="Caminho_617" data-name="Caminho 617" d="M1968.157,857.08c-9.1,9.122-17.9,18.528-26.6,28.027-2.176,2.374-4.314,4.782-6.459,7.183l-3.218,3.6-3.187,3.629c-2.115,2.428-4.265,4.827-6.353,7.278l-6.266,7.355c-4.114,4.956-8.27,9.877-12.292,14.91-2.015,2.513-4.078,4.987-6.042,7.541l-5.925,7.634c-7.8,10.257-15.341,20.715-22.342,31.533l.462.306,5.545-7.9,1.382-1.976,1.43-1.941,2.869-3.878,2.861-3.882c.951-1.3,1.95-2.556,2.923-3.836,1.963-2.547,3.906-5.109,5.885-7.642q11.974-15.128,24.42-29.876c4.2-4.874,8.354-9.783,12.586-14.628l3.164-3.642,3.194-3.616c2.128-2.412,4.257-4.823,6.409-7.214q6.4-7.226,12.9-14.357,6.469-7.162,13.043-14.23Z" transform="translate(-1861.376 -839.539)" fill="#bdd0fb"/>
                  <path id="Caminho_618" data-name="Caminho 618" d="M2192.46,876.354a.5.5,0,0,0,.422-.061c15.48-10.261,19.87-21.774,20.827-29.625a30.179,30.179,0,0,0-1.677-14.787.5.5,0,0,0-.913.4,29.766,29.766,0,0,1,1.593,14.315c-.942,7.628-5.244,18.827-20.381,28.862a.5.5,0,0,0,.129.893Z" transform="translate(-2088.678 -821.576)" fill="#bdd0fb"/>
                </g>
              </g>
            </g>
            <g id="Grupo_2436" data-name="Grupo 2436" transform="translate(0 289.385)">
              <path id="Caminho_622" data-name="Caminho 622" d="M287.314,1320.027,137,1370.664c-.215,0,58.482,1.52,57.866,0-.409-1.519,126.439-49.867,125.885-49.867Q303.86,1320.412,287.314,1320.027Z" transform="translate(-137 -1318.255)" fill="#7d97f4"/>
              <path id="Caminho_623" data-name="Caminho 623" d="M545.351,1319.03q-54.983,25.743-107.427,51.486h58.092q39.041-25.187,81.3-50.373Q561.094,1319.587,545.351,1319.03Z" transform="translate(-334.559 -1317.6)" fill="#7d97f4"/>
              <path id="Caminho_624" data-name="Caminho 624" d="M793.875,1319.747q-.992.75-1.981,1.5-32.223,24.457-59.487,48.914l45.035.21,53.679-51.819Q812.769,1319.15,793.875,1319.747Z" transform="translate(-527.89 -1317.286)" fill="#7d97f4"/>
              <path id="Caminho_625" data-name="Caminho 625" d="M1665.981,1319.03q48.1,25.743,98.739,51.486h58.093Q1761,1345.33,1702.4,1320.143,1683.953,1319.587,1665.981,1319.03Z" transform="translate(-1140.79 -1317.6)" fill="#7d97f4"/>
              <path id="Caminho_626" data-name="Caminho 626" d="M1838.686,1319.747l4.025,1.5q65.713,24.457,136.38,48.914l45.875.21-153.821-51.819Q1855.186,1319.15,1838.686,1319.747Z" transform="translate(-1254.172 -1317.286)" fill="#7d97f4"/>
              <path id="Caminho_627" data-name="Caminho 627" d="M1053.147,1320.071l-30.984,50.131c-.387,0,62.815,2.7,60.329.169-2.445-2.532,8.405-51.819,8.033-51.819Q1072.188,1319.312,1053.147,1320.071Z" transform="translate(-718.117 -1317.286)" fill="#7d97f4"/>
              <path id="Caminho_628" data-name="Caminho 628" d="M1297.782,1316.133q4.814,26.331,9.627,52.663h47.9a447.4,447.4,0,0,0-23.537-53.929Q1315.059,1315.5,1297.782,1316.133Z" transform="translate(-899.064 -1314.867)" fill="#7d97f4"/>
              <path id="Caminho_629" data-name="Caminho 629" d="M1501.079,1315.6l58.405,53.676,68.815.239q-55.547-26.451-100.656-52.9Q1514.2,1316.11,1501.079,1315.6Z" transform="translate(-1032.53 -1315.351)" fill="#7d97f4"/>
            </g>
            <g id="Grupo_2459" data-name="Grupo 2459" transform="translate(196.49 143.344)">
              <g id="Grupo_2458" data-name="Grupo 2458">
                <rect id="Retângulo_961" data-name="Retângulo 961" width="237.964" height="21.205" transform="translate(12.566 135.082)" fill="url(#linear-gradient-6)"/>
                <rect id="Retângulo_962" data-name="Retângulo 962" width="7.068" height="25.917" transform="translate(7.068 135.082)" fill="url(#linear-gradient-7)"/>
                <path id="Caminho_645" data-name="Caminho 645" d="M492.724,874.7c0-5.212-4.449-9.328-10.422-9.328H257.328c-5.973,0-11.207,4.115-11.207,9.328V993.265c0,5.212,5.234,9.547,11.207,9.547H482.3c5.973,0,10.422-4.335,10.422-9.547Z" transform="translate(-246.121 -865.373)" fill="url(#linear-gradient-8)"/>
                <path id="Caminho_646" data-name="Caminho 646" d="M499.951,889.986c0-4.769-4.643-8.608-10.276-8.608H277.441c-5.633,0-10.742,3.839-10.742,8.608V998.364c0,4.769,5.11,8.671,10.742,8.671H489.675c5.633,0,10.276-3.9,10.276-8.671Z" transform="translate(-259.631 -875.88)" fill="url(#linear-gradient-9)"/>
                <path id="Caminho_647" data-name="Caminho 647" d="M1047.755,1052.617l-14.778-45.766a2.858,2.858,0,0,0-2.641-2.008H970.913v108.38h80.342Z" transform="translate(-721.953 -956.937)" fill="url(#linear-gradient-10)"/>
                <path id="Caminho_648" data-name="Caminho 648" d="M1082.169,1270.869a5.513,5.513,0,0,0-3.032-.785l-61.99,1.193-.314,17.591,62.157,1.52c2.267,0,4.532-1.094,4.532-2.626v-14.9A2.591,2.591,0,0,0,1082.169,1270.869Z" transform="translate(-752.1 -1131.069)" fill="#f99300"/>
                <g id="Grupo_2448" data-name="Grupo 2448" transform="translate(264.929 54.593)">
                  <path id="Caminho_649" data-name="Caminho 649" d="M1066.741,1063l-8.933-35.381a2.865,2.865,0,0,0-2.691-2.192h-34.936a2.945,2.945,0,0,0-2.775,3l.838,28.356a2.788,2.788,0,0,0,2.332,2.67l43.031,6.958a2.772,2.772,0,0,0,3.134-3.415Z" transform="translate(-1017.406 -1025.04)" fill="url(#linear-gradient-11)"/>
                  <path id="Caminho_650" data-name="Caminho 650" d="M1150.53,1024.31l-.456.076a2.777,2.777,0,0,0-2.227,3.459l9.737,36.21a2.776,2.776,0,0,0,3.192,2.007l3.075-.576Z" transform="translate(-1102.979 -1024.31)" fill="url(#linear-gradient-12)"/>
                </g>
                <rect id="Retângulo_963" data-name="Retângulo 963" width="15.707" height="5.498" rx="2.749" transform="translate(264.667 97.385)" fill="#f99300"/>
                <path id="Caminho_651" data-name="Caminho 651" d="M975.067,912.524a4.067,4.067,0,0,0-2.806.957,3.816,3.816,0,0,0-1.348,2.529v28.22h36.243S1005.209,914.723,975.067,912.524Z" transform="translate(-721.953 -896.323)" fill="#f99300"/>
                <g id="Grupo_2450" data-name="Grupo 2450" transform="translate(256.04 128.22)">
                  <g id="Grupo_2449" data-name="Grupo 2449" transform="translate(0 0)">
                    <circle id="Elipse_32" data-name="Elipse 32" cx="28.151" cy="28.151" r="28.151" transform="translate(0 3.991) rotate(-4.065)" fill="url(#linear-gradient-13)"/>
                    <circle id="Elipse_33" data-name="Elipse 33" cx="22.862" cy="22.862" r="22.862" transform="translate(4.856 9.845) rotate(-6.264)" fill="url(#linear-gradient-14)"/>
                    <path id="Caminho_652" data-name="Caminho 652" d="M1078.958,1294.7a.786.786,0,0,1-.723-1.092,19.464,19.464,0,0,0-27.425-24.558.785.785,0,1,1-.768-1.37,21.036,21.036,0,0,1,29.639,26.54A.786.786,0,0,1,1078.958,1294.7Z" transform="translate(-1029.679 -1255.955)" fill="#91b3fa"/>
                  </g>
                  <circle id="Elipse_34" data-name="Elipse 34" cx="10.485" cy="10.485" r="10.485" transform="translate(17.003 37.073) rotate(-73.155)" fill="url(#linear-gradient-15)"/>
                </g>
                <g id="Grupo_2452" data-name="Grupo 2452" transform="translate(82.475 128.22)">
                  <g id="Grupo_2451" data-name="Grupo 2451" transform="translate(0 0)">
                    <circle id="Elipse_35" data-name="Elipse 35" cx="28.151" cy="28.151" r="28.151" transform="translate(0 3.991) rotate(-4.065)" fill="url(#linear-gradient-13)"/>
                    <circle id="Elipse_36" data-name="Elipse 36" cx="22.862" cy="22.862" r="22.862" transform="translate(4.856 9.845) rotate(-6.264)" fill="url(#linear-gradient-17)"/>
                    <path id="Caminho_653" data-name="Caminho 653" d="M573.662,1294.7a.786.786,0,0,1-.723-1.092,19.464,19.464,0,0,0-27.425-24.558.785.785,0,0,1-.768-1.37,21.036,21.036,0,0,1,29.639,26.54A.786.786,0,0,1,573.662,1294.7Z" transform="translate(-524.383 -1255.955)" fill="#7d97f4"/>
                  </g>
                  <circle id="Elipse_37" data-name="Elipse 37" cx="10.485" cy="10.485" r="10.485" transform="translate(17.003 37.073) rotate(-73.155)" fill="url(#linear-gradient-18)"/>
                </g>
                <g id="Grupo_2454" data-name="Grupo 2454" transform="translate(18.076 128.22)">
                  <g id="Grupo_2453" data-name="Grupo 2453" transform="translate(0 0)">
                    <circle id="Elipse_38" data-name="Elipse 38" cx="28.151" cy="28.151" r="28.151" transform="translate(0 3.991) rotate(-4.065)" fill="url(#linear-gradient-13)"/>
                    <circle id="Elipse_39" data-name="Elipse 39" cx="22.862" cy="22.862" r="22.862" transform="translate(5.253 9.36) rotate(-5.152)" fill="url(#linear-gradient-20)"/>
                    <path id="Caminho_654" data-name="Caminho 654" d="M386.176,1294.7a.786.786,0,0,1-.723-1.092,19.464,19.464,0,0,0-27.425-24.558.785.785,0,1,1-.768-1.37,21.036,21.036,0,0,1,29.639,26.54A.785.785,0,0,1,386.176,1294.7Z" transform="translate(-336.897 -1255.955)" fill="#7d97f4"/>
                  </g>
                  <circle id="Elipse_40" data-name="Elipse 40" cx="10.485" cy="10.485" r="10.485" transform="translate(17.463 37.872) rotate(-76.718)" fill="url(#linear-gradient-21)"/>
                </g>
                <g id="Grupo_2455" data-name="Grupo 2455" transform="translate(317.286 122.516)">
                  <rect id="Retângulo_964" data-name="Retângulo 964" width="12.566" height="14.922" rx="6.283" transform="translate(0)" fill="url(#linear-gradient-22)"/>
                  <path id="Caminho_655" data-name="Caminho 655" d="M1174.542,1222.053v14.922h-1.818a3.222,3.222,0,0,1-2.895-3.149v-9.142a2.761,2.761,0,0,1,2.895-2.631Z" transform="translate(-1169.83 -1222.053)" fill="#fff"/>
                </g>
                <g id="Grupo_2457" data-name="Grupo 2457" transform="translate(154.716 135.082)">
                  <path id="Caminho_656" data-name="Caminho 656" d="M749.948,1291.855v.252c0,.077.392.254.385.324-.112,6.979-5.418,12.7-12.425,12.7H709.655a13.028,13.028,0,0,1-12.961-12.7c-.007-.07-.151-.247-.151-.324v-.252a12.3,12.3,0,0,1,.69-3.633,12.934,12.934,0,0,1,12.422-9.009h28.251a11.327,11.327,0,0,1,12.041,12.642Z" transform="translate(-696.543 -1272.145)" fill="url(#linear-gradient-23)"/>
                  <path id="Caminho_657" data-name="Caminho 657" d="M749.948,1309.867v.252a4.313,4.313,0,0,0,.776.458H696.839a2.073,2.073,0,0,1-.3-.458v-.252a7.8,7.8,0,0,1,.835-3.217h52.807C750.542,1307.436,749.948,1308.572,749.948,1309.867Z" transform="translate(-696.543 -1290.158)" fill="#91b3fa"/>
                  <g id="Grupo_2456" data-name="Grupo 2456" transform="translate(11.781)">
                    <rect id="Retângulo_965" data-name="Retângulo 965" width="3.927" height="29.058" rx="1.963" fill="#bdd0fb"/>
                    <rect id="Retângulo_966" data-name="Retângulo 966" width="3.927" height="29.058" rx="1.963" transform="translate(25.132)" fill="#bdd0fb"/>
                  </g>
                </g>
                <path id="Caminho_658" data-name="Caminho 658" d="M983.13,1089.105a.785.785,0,0,1-.785-.786v-64.4a.785.785,0,1,1,1.57,0v64.4A.785.785,0,0,1,983.13,1089.105Z" transform="translate(-729.459 -968.945)" fill="#f99300"/>
                <path id="Caminho_659" data-name="Caminho 659" d="M1005.4,951.672a.785.785,0,0,1-.742-.529c-8.251-23.912-24.721-22.305-25.416-22.226a.785.785,0,0,1-.184-1.56c.186-.018,18.4-1.883,27.085,23.273a.786.786,0,0,1-.742,1.042Z" transform="translate(-726.844 -906.042)" fill="#fff" opacity="0.55"/>
              </g>
            </g>
            <g id="Grupo_2468" data-name="Grupo 2468" transform="translate(595.107 158.538)">
              <g id="Grupo_2466" data-name="Grupo 2466" transform="translate(0 62.626)">
                <path id="Caminho_682" data-name="Caminho 682" d="M1528.136,1112.136a.891.891,0,0,1-.26-.038l-4.4-1.364a.892.892,0,0,1-.627-.823l-.111-3.52a17.231,17.231,0,0,1-3.822-3.173l-3.478.535a.889.889,0,0,1-.925-.468l-2.144-4.068a.891.891,0,0,1,.14-1.026l2.409-2.565a17.2,17.2,0,0,1-.455-4.946l-2.84-2.082a.893.893,0,0,1-.324-.984l1.363-4.395a.9.9,0,0,1,.823-.627l3.521-.11a17.222,17.222,0,0,1,3.174-3.821l-.535-3.479a.888.888,0,0,1,.469-.925l4.068-2.143a.893.893,0,0,1,1.025.139l2.565,2.409a17.131,17.131,0,0,1,4.947-.454l2.082-2.84a.884.884,0,0,1,.986-.323l4.393,1.361a.9.9,0,0,1,.627.823l.111,3.521a17.268,17.268,0,0,1,3.822,3.173l3.479-.535a.9.9,0,0,1,.924.467l2.143,4.069a.888.888,0,0,1-.14,1.027l-2.408,2.564a17.251,17.251,0,0,1,.455,4.947l2.84,2.082a.892.892,0,0,1,.325.981l-1.364,4.4a.893.893,0,0,1-.822.627l-3.521.11a17.227,17.227,0,0,1-3.174,3.821l.535,3.478a.9.9,0,0,1-.465.926l-4.071,2.143a.887.887,0,0,1-1.026-.138l-2.565-2.409a17.269,17.269,0,0,1-4.947.455l-2.082,2.84A.893.893,0,0,1,1528.136,1112.136Zm-4.138-2.448,4.039,1.253,2.346-3.2.317.022a16.066,16.066,0,0,0,5.206-.479l.308-.081,2.89,2.715,3.742-1.97-.6-3.921.24-.208a16.109,16.109,0,0,0,3.339-4.02l.161-.275,3.966-.125,1.253-4.039-3.2-2.346.022-.318a16.12,16.12,0,0,0-.479-5.206l-.08-.308,2.715-2.89-1.97-3.742-3.919.6-.208-.24a16.1,16.1,0,0,0-4.022-3.34l-.274-.162-.124-3.966-4.04-1.252-2.346,3.2-.317-.023a16,16,0,0,0-5.2.477l-.308.081-2.891-2.715-3.741,1.971.6,3.92-.24.208a16.067,16.067,0,0,0-3.339,4.021l-.161.275-3.966.125-1.253,4.039,3.2,2.346-.022.317a16.1,16.1,0,0,0,.479,5.205l.08.308-2.715,2.892,1.971,3.742,3.919-.6.209.24a16.085,16.085,0,0,0,4.021,3.338l.275.161Zm14.942.317h0Zm-15.121-.373h0Zm-8.283-6.885h0Zm34.358-3.168h0Zm1.458-4.108h0Zm-1.085-11.012h0Zm-2.144-4.072h0Zm-27.471-5.114h0Zm14.793-3.133h0Zm.288-.1v0Zm-3.986,31.188a11.679,11.679,0,1,1,11.239-14.816l-1.11.309a10.523,10.523,0,1,0-1.151,8.3l.985.6a11.715,11.715,0,0,1-9.963,5.61Z" transform="translate(-1511.262 -1070.999)" fill="#91b3fa"/>
                <path id="Caminho_683" data-name="Caminho 683" d="M1562.239,1126.638c-.085,0-.17,0-.255-.006a4.662,4.662,0,1,1,3.717-7.772h0a4.663,4.663,0,0,1-3.461,7.779Zm-.008-8.17a3.508,3.508,0,1,0,2.612,1.162A3.5,3.5,0,0,0,1562.23,1118.468Z" transform="translate(-1541.664 -1101.406)" fill="#91b3fa"/>
              </g>
              <g id="Grupo_2467" data-name="Grupo 2467" transform="translate(36.775)">
                <path id="Caminho_684" data-name="Caminho 684" d="M1657.528,971.644a1.214,1.214,0,0,1-1.12-.749l-2.821-6.85a34.167,34.167,0,0,1-9.885-3.436l-6.462,3.63a1.21,1.21,0,0,1-1.4-.15l-6.928-6.16a1.213,1.213,0,0,1-.314-1.372l2.851-6.842a34.187,34.187,0,0,1-4.567-9.416l-7.132-2a1.21,1.21,0,0,1-.882-1.1l-.543-9.255a1.211,1.211,0,0,1,.747-1.191l6.85-2.82a34.2,34.2,0,0,1,3.436-9.885l-3.631-6.463a1.21,1.21,0,0,1,.151-1.4l6.161-6.928a1.209,1.209,0,0,1,1.373-.313l6.841,2.849a34.239,34.239,0,0,1,9.415-4.567l2-7.131a1.212,1.212,0,0,1,1.095-.883l9.255-.542a1.23,1.23,0,0,1,1.191.747l2.82,6.85a34.176,34.176,0,0,1,9.885,3.436l6.463-3.631a1.215,1.215,0,0,1,1.4.151l6.928,6.161a1.21,1.21,0,0,1,.313,1.371l-2.851,6.842a34.215,34.215,0,0,1,4.568,9.417l7.132,2h0a1.211,1.211,0,0,1,.883,1.1l.542,9.255a1.211,1.211,0,0,1-.747,1.191l-6.85,2.82a34.225,34.225,0,0,1-3.435,9.886l3.631,6.462a1.211,1.211,0,0,1-.151,1.4l-6.16,6.928a1.214,1.214,0,0,1-1.372.313l-6.841-2.849a34.187,34.187,0,0,1-9.416,4.566l-2,7.132a1.212,1.212,0,0,1-1.1.882l-9.255.543Zm-13.838-12.351.28.152a33.087,33.087,0,0,0,10.127,3.52l.314.054,3.063,7.436,9.312-.507,2.226-7.786.3-.091a33,33,0,0,0,9.646-4.678l.26-.182,7.429,3.093,6.226-6.942-3.934-7.084.152-.279a33.054,33.054,0,0,0,3.519-10.127l.055-.314,7.436-3.061-.55-9.367-7.743-2.171-.09-.3a33.059,33.059,0,0,0-4.679-9.647l-.183-.26,3.095-7.428-6.943-6.226-7.083,3.934-.279-.152a33.084,33.084,0,0,0-10.128-3.52l-.313-.054-3.062-7.436-9.312.506-2.226,7.785-.3.091a33.04,33.04,0,0,0-9.646,4.679l-.26.183-7.428-3.094-6.227,6.942,3.935,7.084-.152.279A33.045,33.045,0,0,0,1627,924.448l-.054.314-7.437,3.061.507,9.314,7.786,2.224.091.3a33.007,33.007,0,0,0,4.679,9.647l.183.26-3.1,7.428,6.944,6.226Zm15.948-6.3a22.922,22.922,0,1,1,22.692-19.411l-1.139-.176a21.793,21.793,0,1,0-9.272,14.658l.65.952a22.918,22.918,0,0,1-11.573,3.938C1660.541,952.976,1660.087,952.988,1659.638,952.988Z" transform="translate(-1618.325 -888.676)" fill="#91b3fa"/>
                <path id="Caminho_685" data-name="Caminho 685" d="M1722.261,1001.416a8.81,8.81,0,1,1,2.647-.41A8.824,8.824,0,0,1,1722.261,1001.416Zm-.011-16.466a7.657,7.657,0,1,0,7.305,5.352A7.635,7.635,0,0,0,1722.251,984.949Z" transform="translate(-1680.771 -951.123)" fill="#91b3fa"/>
              </g>
            </g>
          </g>
        </g>
      </g>
    </g>
    <g id="Grupo_2559" data-name="Grupo 2559" transform="translate(-194.55 -1819.16)">
      <rect id="Retângulo_1027" data-name="Retângulo 1027" width="54.779" height="65.07" rx="4" transform="translate(1164.328 2473.459) rotate(180)" fill="#fca626"/>
      <rect id="Retângulo_1028" data-name="Retângulo 1028" width="52.653" height="65.03" rx="5" transform="translate(1171.071 2473.484) rotate(180)" fill="#ffc56d"/>
      <path id="Caminho_876" data-name="Caminho 876" d="M1444.833,2427.242l-6.083.656a1.371,1.371,0,0,1-1.515-1.464l1.33-18.094c2.55-.081,5.065-.14,7.492-.181v17.719A1.371,1.371,0,0,1,1444.833,2427.242Z" transform="translate(-298.435)" fill="#fff" opacity="0.37"/>
      <path id="Caminho_877" data-name="Caminho 877" d="M1481.988,2424.675a.611.611,0,0,1-.61.576h-.036a.611.611,0,0,1-.575-.646l.917-15.791,1.227-.029Z" transform="translate(-338.084 -0.568)" fill="#fff"/>
    </g>
    <g id="Grupo_2560" data-name="Grupo 2560" transform="translate(-234.55 -1796.309)">
      <rect id="Retângulo_1027-2" data-name="Retângulo 1027" width="35.616" height="42.308" rx="4" transform="translate(1145.166 2450.617) rotate(180)" fill="#fca626"/>
      <rect id="Retângulo_1028-2" data-name="Retângulo 1028" width="34.234" height="42.282" rx="5" transform="translate(1149.55 2450.633) rotate(180)" fill="#ffc56d"/>
      <path id="Caminho_876-2" data-name="Caminho 876" d="M1442.174,2420.567l-3.955.427a.892.892,0,0,1-.985-.952l.865-11.764c1.658-.053,3.293-.091,4.871-.118v11.521A.891.891,0,0,1,1442.174,2420.567Z" transform="translate(-308.666)" fill="#fff" opacity="0.37"/>
      <path id="Caminho_877-2" data-name="Caminho 877" d="M1481.561,2419.116a.4.4,0,0,1-.4.375h-.023a.4.4,0,0,1-.374-.42l.6-10.267.8-.019Z" transform="translate(-349.674 -0.588)" fill="#fff"/>
    </g>
  </g>
</svg>
