<svg xmlns="http://www.w3.org/2000/svg" width="23.372" height="41.73" viewBox="0 0 23.372 41.73">
  <g id="Grupo_2641" data-name="Grupo 2641" transform="translate(-521.133 -316.943)">
    <g id="Grupo_2640" data-name="Grupo 2640" transform="translate(521.954 330.099)">
      <path id="Caminho_60" data-name="Caminho 60" d="M451.893,381.974c3.177,0,5.753-3.128,5.753-6.987S456.8,368,451.893,368s-5.752,3.128-5.752,6.987,2.576,6.987,5.752,6.987Zm0,0" transform="translate(-441.029 -368)" fill="#0e5edc"/>
      <path id="Caminho_61" data-name="Caminho 61" d="M420.623,511.916c-.106-6.722-.984-8.638-7.7-9.85a4.72,4.72,0,0,1-6.3,0c-6.645,1.2-7.576,3.086-7.7,9.632-.01.535-.014.562-.016.5,0,.117,0,.332,0,.706,0,0,1.6,3.225,10.864,3.225s10.865-3.225,10.865-3.225v-.523a4.261,4.261,0,0,1-.012-.466Zm0,0" transform="translate(-398.906 -487.556)" fill="#0e5edc"/>
    </g>
    <path id="Caminho_1621" data-name="Caminho 1621" d="M567.545,585.808l-1.908,1.377a.8.8,0,0,0-.294.9l.768,2.227a.809.809,0,0,1,.041.288.844.844,0,0,1-1.327.611l-1.908-1.377a.815.815,0,0,0-.952,0l-1.908,1.377a.843.843,0,0,1-1.327-.611.817.817,0,0,1,.042-.288l.768-2.227a.8.8,0,0,0-.294-.9l-1.908-1.377a.863.863,0,0,1,.476-1.544h2.358a.737.737,0,0,0,.77-.466l.729-2.241a.812.812,0,0,1,1.541,0l.729,2.241a.737.737,0,0,0,.77.466h2.358a.863.863,0,0,1,.476,1.544Z" transform="translate(-29.622 -264.057)" fill="#0e5edc"/>
    <path id="Caminho_1622" data-name="Caminho 1622" d="M564.117,584.245l-1.288.929a.541.541,0,0,0-.2.607l.519,1.5a.544.544,0,0,1,.027.195.569.569,0,0,1-.9.412l-1.288-.929a.551.551,0,0,0-.643,0l-1.288.929a.569.569,0,0,1-.9-.412.55.55,0,0,1,.028-.195l.518-1.5a.541.541,0,0,0-.2-.607l-1.288-.929a.583.583,0,0,1,.321-1.042h1.592a.5.5,0,0,0,.52-.315l.492-1.513a.548.548,0,0,1,1.04,0l.492,1.513a.5.5,0,0,0,.52.315H563.8a.583.583,0,0,1,.321,1.042Z" transform="translate(-19.838 -258.874)" fill="#0e5edc"/>
    <path id="Caminho_1623" data-name="Caminho 1623" d="M564.117,584.245l-1.288.929a.541.541,0,0,0-.2.607l.519,1.5a.544.544,0,0,1,.027.195.569.569,0,0,1-.9.412l-1.288-.929a.551.551,0,0,0-.643,0l-1.288.929a.569.569,0,0,1-.9-.412.55.55,0,0,1,.028-.195l.518-1.5a.541.541,0,0,0-.2-.607l-1.288-.929a.583.583,0,0,1,.321-1.042h1.592a.5.5,0,0,0,.52-.315l.492-1.513a.548.548,0,0,1,1.04,0l.492,1.513a.5.5,0,0,0,.52.315H563.8a.583.583,0,0,1,.321,1.042Z" transform="translate(-35.868 -258.874)" fill="#0e5edc"/>
  </g>
</svg>
