<svg id="Grupo_2639" data-name="Grupo 2639" xmlns="http://www.w3.org/2000/svg" xmlns:xlink="http://www.w3.org/1999/xlink" width="41.54" height="29.212" viewBox="0 0 41.54 29.212">
  <defs>
    <clipPath id="clip-path">
      <rect id="Retângulo_27" data-name="Retângulo 27" width="41.54" height="29.212" fill="#0e5edc"/>
    </clipPath>
  </defs>
  <g id="Grupo_217" data-name="Grupo 217" transform="translate(0 0)" clip-path="url(#clip-path)">
    <path id="Caminho_38" data-name="Caminho 38" d="M181.338,294.415V276.737a1.779,1.779,0,0,1,1.779-1.779h17.669a1.779,1.779,0,0,1,1.778,1.779v17.678a.593.593,0,0,1-.593.593h-20.04a.593.593,0,0,1-.593-.593Zm14.268,6.056a3.689,3.689,0,1,1-3.689-3.689,3.689,3.689,0,0,1,3.689,3.689Zm-1.844,0a1.845,1.845,0,1,0-1.845,1.845,1.845,1.845,0,0,0,1.845-1.845Zm-5.022-3.689h-8.267a.593.593,0,0,0-.593.593v1.8a.593.593,0,0,0,.593.593H187.1a4.867,4.867,0,0,1,1.641-2.985Zm26.169,3.689a3.689,3.689,0,1,1-3.689-3.689,3.689,3.689,0,0,1,3.689,3.689Zm-1.844,0a1.845,1.845,0,1,0-1.845,1.845,1.845,1.845,0,0,0,1.845-1.845Zm8.366-3.1v1.8a.593.593,0,0,1-.593.593h-4.8a4.868,4.868,0,0,0-9.636,0h-9.666a4.868,4.868,0,0,0-1.641-2.985h9.165V279.823a1.186,1.186,0,0,1,1.186-1.186h5.6a4.743,4.743,0,0,1,3.931,2.089l3.608,5.344a4.744,4.744,0,0,1,.812,2.654v8.057h1.443a.593.593,0,0,1,.593.593Zm-6.015-11.167-2.885-4.1a.593.593,0,0,0-.485-.252h-4.5a.593.593,0,0,0-.593.593v4.1a.593.593,0,0,0,.593.593h7.386a.593.593,0,0,0,.485-.934Zm0,0" transform="translate(-179.888 -274.961)" fill="#0e5edc"/>
  </g>
</svg>
