<svg xmlns="http://www.w3.org/2000/svg" width="39.847" height="34.734" viewBox="0 0 39.847 34.734">
  <g id="Grupo_325" data-name="Grupo 325" transform="translate(-1093.26 -47.113)">
    <path id="Caminho_39" data-name="Caminho 39" d="M30.535,82.89l6.753-3.34L21.021,70.942l-6.307,3.347a2.426,2.426,0,0,0-.306.192Z" transform="translate(1079.835 -19.098)" fill="#f99300"/>
    <path id="Caminho_40" data-name="Caminho 40" d="M274.18,154.113v4.5a1.024,1.024,0,1,1-2.048,0v-3.483l-6.718,3.323v16.27l.063-.029,15.443-7.825a2.393,2.393,0,0,0,1.33-2.152v-14.5c0-.03,0-.06,0-.09Z" transform="translate(845.967 -92.872)" fill="#f99300"/>
    <path id="Caminho_41" data-name="Caminho 41" d="M159.619,13.862l7.889-3.9a2.434,2.434,0,0,0-.387-.242L151.684,1.9l-.006,0a2.413,2.413,0,0,0-2.185.02l-6.218,3.3Z" transform="translate(959.767 45.471)" fill="#f99300"/>
    <path id="Caminho_42" data-name="Caminho 42" d="M0,149.117c0,.047,0,.094,0,.141v14.535a2.4,2.4,0,0,0,1.29,2.132l14.7,7.8.007,0,.074.036V157.5Zm11.039,12.149-4.077,2.392-.016.009-.008,0-.019.01-.031.016-.03.014-.032.014-.031.012-.031.011-.033.01-.031.009-.035.008-.028.006-.04.007-.024,0-.048,0-.016,0-.065,0H6.384l-.034,0-.032,0-.031-.005-.034-.006-.029-.007-.036-.008-.028-.008-.036-.011-.027-.01-.035-.013-.026-.011L6,163.7l-.026-.013-.033-.018-.026-.015-.031-.019-.026-.018-.029-.021-.025-.02-.027-.022-.025-.023-.024-.023-.025-.026-.022-.024-.024-.028-.02-.025-.022-.031-.018-.026-.02-.032-.011-.018,0-.008-.009-.015-1.174-2.126a1.024,1.024,0,0,1,1.793-.989l.666,1.206,3.171-1.86a1.024,1.024,0,0,1,1.036,1.766Z" transform="translate(1093.26 -91.935)" fill="#f99300"/>
  </g>
</svg>
