<svg xmlns="http://www.w3.org/2000/svg" width="23.439" height="20.09" viewBox="0 0 23.439 20.09">
  <path id="Caminho_1655" data-name="Caminho 1655" d="M370.01,403.676l-8.839-14.363a2.861,2.861,0,0,0-4.889-.02l-8.825,14.339a2.718,2.718,0,0,0-.457,1.532,2.864,2.864,0,0,0,2.866,2.855h17.706a2.864,2.864,0,0,0,2.866-2.855,2.673,2.673,0,0,0-.429-1.488Zm-11.29,1.413a1.674,1.674,0,1,1,1.674-1.674,1.675,1.675,0,0,1-1.674,1.674Zm1.674-6.278a1.674,1.674,0,1,1-3.348,0v-3.348a1.674,1.674,0,1,1,3.348,0Zm0,0" transform="translate(-347 -387.929)" fill="#ff9700"/>
</svg>
