<svg xmlns="http://www.w3.org/2000/svg" width="39.847" height="41.606" viewBox="0 0 39.847 41.606">
  <g id="Grupo_323" data-name="Grupo 323" transform="translate(-839.201 -33.861)">
    <rect id="Retângulo_28" data-name="Retângulo 28" width="2.438" height="2.438" transform="translate(857.485 53.445)" fill="#f99300"/>
    <g id="Grupo_322" data-name="Grupo 322" transform="translate(839.201 33.861)">
      <path id="Caminho_50" data-name="Caminho 50" d="M384.692,342.292H361.532a1.22,1.22,0,0,1-1.219-1.219V311.657A3.661,3.661,0,0,0,356.657,308H353v2.438h3.657a1.22,1.22,0,0,1,1.219,1.219v29.417a3.651,3.651,0,0,0,2.706,3.516,3.662,3.662,0,1,0,6.821.14h7.762a3.657,3.657,0,1,0,6.865,0h2.662Zm0,0" transform="translate(-353 -308)" fill="#f99300"/>
      <path id="Caminho_51" data-name="Caminho 51" d="M465.5,398.75v7.314h14.627V398.75h-6.095v2.438h-2.438V398.75Zm0,0" transform="translate(-453.311 -388.917)" fill="#f99300"/>
      <path id="Caminho_52" data-name="Caminho 52" d="M456.408,493.626h-7.314V488.75H443v12.27h19.5V488.75h-6.095Zm0,0" transform="translate(-433.249 -469.166)" fill="#f99300"/>
    </g>
  </g>
</svg>
