<svg id="Grupo_228" data-name="Grupo 228" xmlns="http://www.w3.org/2000/svg" xmlns:xlink="http://www.w3.org/1999/xlink" width="39.847" height="39.847" viewBox="0 0 39.847 39.847">
  <defs>
    <clipPath id="clip-path">
      <rect id="Retângulo_26" data-name="Retângulo 26" width="39.847" height="39.847" fill="#f99300"/>
    </clipPath>
  </defs>
  <g id="Grupo_324" data-name="Grupo 324">
    <path id="Caminho_31" data-name="Caminho 31" d="M385.086,311.172h-1.745a4.371,4.371,0,0,0-8.406,0H373.19a1.2,1.2,0,0,0-1.19,1.19v2.379a2.789,2.789,0,0,0,2.776,2.776H383.5a2.789,2.789,0,0,0,2.776-2.776v-2.379a1.2,1.2,0,0,0-1.19-1.19Zm0,0" transform="translate(-365.405 -307.426)" fill="#f99300"/>
    <g id="Grupo_211" data-name="Grupo 211">
      <g id="Grupo_210" data-name="Grupo 210" transform="translate(0 0)" clip-path="url(#clip-path)">
        <path id="Caminho_32" data-name="Caminho 32" d="M330.6,356h-.4v1.983a4.359,4.359,0,0,1-4.362,4.362H317.12a4.359,4.359,0,0,1-4.362-4.362V356h-.4A4.359,4.359,0,0,0,308,360.362v19.827a4.359,4.359,0,0,0,4.362,4.362h11.706l.349-1.951a4.412,4.412,0,0,1,1.206-2.331L326.891,379H313.948a1.19,1.19,0,1,1,0-2.379h15.068a.539.539,0,0,1,.222.032h.016l5.71-5.71v-10.58A4.359,4.359,0,0,0,330.6,356Zm-1.586,17.844H313.948a1.19,1.19,0,1,1,0-2.379h15.068a1.19,1.19,0,0,1,0,2.379Zm0-5.155H313.948a1.19,1.19,0,1,1,0-2.379h15.068a1.19,1.19,0,0,1,0,2.379Zm0,0" transform="translate(-307.75 -350.667)" fill="#f99300"/>
        <path id="Caminho_33" data-name="Caminho 33" d="M497.629,514.345a1.19,1.19,0,0,1-1.171-1.4l.841-4.766a1.19,1.19,0,0,1,.33-.634l11.777-11.776c1.447-1.45,2.868-1.058,3.645-.281l1.962,1.962a2.777,2.777,0,0,1,0,3.925l-11.777,11.777a1.174,1.174,0,0,1-.634.33l-4.767.841a1.121,1.121,0,0,1-.206.019Zm4.766-2.03h0Zm0,0" transform="translate(-477.508 -475.703)" fill="#f99300"/>
      </g>
    </g>
  </g>
</svg>
