<svg xmlns="http://www.w3.org/2000/svg" width="16.745" height="21.397" viewBox="0 0 16.745 21.397">
  <g id="Grupo_2841" data-name="Grupo 2841" transform="translate(-272 -91.929)">
    <path id="Caminho_1653" data-name="Caminho 1653" d="M460.348,99.265v5.173h5.173Zm0,0" transform="translate(-177.184 -6.927)" fill="#f99300"/>
    <path id="Caminho_1654" data-name="Caminho 1654" d="M270.466,98.906a.7.7,0,0,1-.7-.7V91.929H260.7a.7.7,0,0,0-.7.7v20a.7.7,0,0,0,.7.7h15.35a.7.7,0,0,0,.7-.7V98.906Zm-1.4,10.233h-5.582a.7.7,0,0,1,0-1.4h5.582a.7.7,0,0,1,0,1.4Zm4.186-2.791h-9.768a.7.7,0,1,1,0-1.4h9.768a.7.7,0,1,1,0,1.4Zm0-2.791h-9.768a.7.7,0,1,1,0-1.4h9.768a.7.7,0,1,1,0,1.4Zm0,0" transform="translate(12 0)" fill="#f99300"/>
  </g>
</svg>
