<svg id="Grupo_215" data-name="Grupo 215" xmlns="http://www.w3.org/2000/svg" width="39.847" height="38.279" viewBox="0 0 39.847 38.279">
  <path id="Caminho_34" data-name="Caminho 34" d="M6.708,198.738a4.161,4.161,0,0,1,0-8.322H14.86a6.708,6.708,0,0,0,0-13.416H10.4a6.526,6.526,0,0,1,0,2.547H14.86a4.161,4.161,0,0,1,0,8.322H6.708a6.708,6.708,0,0,0,0,13.416H27.638a6.526,6.526,0,0,1,0-2.547Z" transform="translate(0 -164.586)" fill="#f99300"/>
  <path id="Caminho_35" data-name="Caminho 35" d="M338.443,409.872a3.045,3.045,0,1,0,3.045,3.045A3.049,3.049,0,0,0,338.443,409.872Z" transform="translate(-306.918 -377.684)" fill="#f99300"/>
  <path id="Caminho_36" data-name="Caminho 36" d="M34.549,47.784a3.594,3.594,0,0,0,1.147-7V37.995h6.195a1.147,1.147,0,0,0,1.147-1.147V31.953a1.147,1.147,0,0,0-1.147-1.147H34.549A1.147,1.147,0,0,0,33.4,31.953v8.831a3.594,3.594,0,0,0,1.147,7Z" transform="translate(-28.326 -30.806)" fill="#f99300"/>
  <g id="Grupo_214" data-name="Grupo 214" transform="translate(24.857 12.414)">
    <path id="Caminho_37" data-name="Caminho 37" d="M299.4,177a6.7,6.7,0,0,0-6.668,6.716c0,5.263,6.041,10.7,6.3,10.925a.557.557,0,0,0,.739,0c.257-.229,6.3-5.663,6.3-10.925A6.7,6.7,0,0,0,299.4,177Zm0,10.373a3.7,3.7,0,1,1,3.7-3.7,3.709,3.709,0,0,1-3.7,3.7Zm0,0" transform="translate(-292.735 -177)" fill="#f99300"/>
  </g>
</svg>
