<svg xmlns="http://www.w3.org/2000/svg" width="82.195" height="80.825" viewBox="0 0 82.195 80.825">
  <g id="Grupo_1381" data-name="Grupo 1381" transform="translate(15.386 19.871)">
    <path id="Caminho_1593" data-name="Caminho 1593" d="M41.1,0C63.8,0,82.2,18.093,82.2,40.413S63.8,80.825,41.1,80.825,0,62.732,0,40.413,18.4,0,41.1,0Z" transform="translate(-15.386 -19.871)" fill="#0440a0"/>
    <path id="Caminho_166" data-name="Caminho 166" d="M90.016,94.87H82.122v-.1a4.27,4.27,0,0,0-1.284-3.091h0A4.351,4.351,0,0,0,77.747,90.4H63.481a4.38,4.38,0,0,0-3.139,1.284h0a4.351,4.351,0,0,0-1.284,3.091v.1H51.211a5.379,5.379,0,0,0-3.947,1.664,5.654,5.654,0,0,0-1.664,3.947v23.682a5.379,5.379,0,0,0,1.664,3.947,5.654,5.654,0,0,0,3.947,1.664h38.8a5.378,5.378,0,0,0,3.947-1.664,5.654,5.654,0,0,0,1.664-3.947V100.482a5.684,5.684,0,0,0-5.611-5.611Zm3.091,29.294a3.085,3.085,0,0,1-3.091,3.091h-38.8a3.085,3.085,0,0,1-3.091-3.091V100.482a3.085,3.085,0,0,1,3.091-3.091h9.178a1.279,1.279,0,0,0,1.284-1.284V94.727A1.868,1.868,0,0,1,62.2,93.4h0a1.868,1.868,0,0,1,1.332-.523H77.747A1.79,1.79,0,0,1,79.6,94.727v1.379a1.279,1.279,0,0,0,1.284,1.284h9.178a3.085,3.085,0,0,1,3.091,3.091v23.682Z" transform="translate(-45.6 -90.4)" fill="#fff"/>
    <path id="Caminho_167" data-name="Caminho 167" d="M169.3,176.4a11.69,11.69,0,1,0,8.275,3.424A11.719,11.719,0,0,0,169.3,176.4Zm6.467,18.213a9.185,9.185,0,0,1-12.935,0,9.091,9.091,0,0,1-2.663-6.467,9.293,9.293,0,0,1,2.663-6.467,9.091,9.091,0,0,1,6.467-2.663,9.293,9.293,0,0,1,6.467,2.663,9.091,9.091,0,0,1,2.663,6.467A8.9,8.9,0,0,1,175.766,194.613Z" transform="translate(-144.285 -166.176)" fill="#fff"/>
    <circle id="Elipse_2" data-name="Elipse 2" cx="2.33" cy="2.33" r="2.33" transform="translate(39.613 10.177)" fill="#fff"/>
  </g>
</svg>
