<svg xmlns="http://www.w3.org/2000/svg" width="33.213" height="33" viewBox="0 0 33.213 33">
  <g id="Grupo_2669" data-name="Grupo 2669" transform="translate(-349 -259.614)">
    <path id="Caminho_39" data-name="Caminho 39" d="M29.73,82.294l6.416-3.173L20.691,70.942,14.7,74.122a2.305,2.305,0,0,0-.291.182Z" transform="translate(335.527 193.168)" fill="#888"/>
    <path id="Caminho_40" data-name="Caminho 40" d="M273.743,153.914v4.271a.973.973,0,1,1-1.945,0v-3.309l-6.382,3.157v15.458l.06-.028,14.672-7.434a2.273,2.273,0,0,0,1.264-2.045V150.209c0-.029,0-.057,0-.086Z" transform="translate(100.802 119.123)" fill="#888"/>
    <path id="Caminho_41" data-name="Caminho 41" d="M158.8,13.252,166.3,9.545a2.312,2.312,0,0,0-.367-.23L151.264,1.884l-.006,0a2.293,2.293,0,0,0-2.076.019l-5.907,3.135Z" transform="translate(215.019 257.973)" fill="#888"/>
    <path id="Caminho_42" data-name="Caminho 42" d="M0,149.117c0,.045,0,.089,0,.134v13.81a2.279,2.279,0,0,0,1.226,2.025L15.2,172.5l.006,0,.071.034V157.078ZM10.493,160.66l-3.874,2.273-.015.008-.007,0-.018.009-.03.015-.028.013-.03.013-.029.011-.03.011-.031.009-.029.008-.034.008-.027.006-.038.006-.023,0-.046,0H6.189l-.062,0H6.065l-.032,0-.031,0-.03,0-.033-.005-.028-.006-.034-.008-.027-.008-.034-.01-.026-.009-.034-.013-.025-.011-.033-.015-.024-.013-.032-.017-.024-.015-.03-.018-.024-.017-.028-.02-.024-.019-.025-.021-.024-.022-.023-.022-.024-.025-.021-.023-.023-.027-.019-.023-.021-.029-.017-.025L5.3,162.6l-.011-.017,0-.008-.009-.014-1.115-2.02a.973.973,0,0,1,1.7-.94l.633,1.146,3.012-1.767a.973.973,0,0,1,.984,1.678Z" transform="translate(349 120.064)" fill="#888"/>
  </g>
</svg>
