<svg xmlns="http://www.w3.org/2000/svg" width="36.262" height="36.262" viewBox="0 0 36.262 36.262">
  <g id="Grupo_2685" data-name="Grupo 2685" transform="translate(24 -171)">
    <path id="Caminho_1638" data-name="Caminho 1638" d="M-5.869,207.262a18.013,18.013,0,0,1-12.821-5.31A18.013,18.013,0,0,1-24,189.131a18.013,18.013,0,0,1,5.31-12.821A18.013,18.013,0,0,1-5.869,171a18.013,18.013,0,0,1,12.821,5.31,18.013,18.013,0,0,1,5.31,12.821A18.06,18.06,0,0,1,9.19,199.2a1.416,1.416,0,1,1-2.355-1.575,15.236,15.236,0,0,0,2.594-8.491,15.315,15.315,0,0,0-15.3-15.3,15.315,15.315,0,0,0-15.3,15.3,15.315,15.315,0,0,0,15.3,15.3,15.27,15.27,0,0,0,7.914-2.2,1.417,1.417,0,0,1,1.468,2.423A18.1,18.1,0,0,1-5.869,207.262Z" transform="translate(0)" fill="#888"/>
    <path id="Caminho_1639" data-name="Caminho 1639" d="M134.22,266.774a1.417,1.417,0,0,1-1-2.418l5.194-5.194V248.417a1.417,1.417,0,0,1,2.833,0v11.332a1.416,1.416,0,0,1-.415,1l-5.609,5.609A1.412,1.412,0,0,1,134.22,266.774Z" transform="translate(-145.698 -70.617)" fill="#888"/>
  </g>
</svg>
