<svg xmlns="http://www.w3.org/2000/svg" width="32.977" height="31.715" viewBox="0 0 32.977 31.715">
  <path id="Caminho_725" data-name="Caminho 725" d="M54.536,134.395a1.5,1.5,0,0,1-.765-2.353,3.4,3.4,0,0,0-3.837-5.281,1.5,1.5,0,0,1-2-1.454,3.4,3.4,0,0,0-6.208-2.017,1.5,1.5,0,0,1-2.474,0,3.4,3.4,0,0,0-6.208,2.017,1.5,1.5,0,0,1-2,1.454,3.4,3.4,0,0,0-3.837,5.281,1.5,1.5,0,0,1-.765,2.353,3.4,3.4,0,0,0,0,6.527,1.5,1.5,0,0,1,.765,2.353,3.4,3.4,0,0,0,3.837,5.281,1.5,1.5,0,0,1,2,1.454,3.337,3.337,0,0,0,2.35,3.33,3.525,3.525,0,0,0,1.09.176,3.331,3.331,0,0,0,2.768-1.489,1.5,1.5,0,0,1,2.474,0,3.4,3.4,0,0,0,6.208-2.017,1.5,1.5,0,0,1,2-1.454,3.4,3.4,0,0,0,3.837-5.281,1.5,1.5,0,0,1,.765-2.353,3.4,3.4,0,0,0,0-6.527Zm-6.984-.557-7.61,8.878a.951.951,0,0,1-1.293.142l-5.073-3.805a.951.951,0,0,1,1.142-1.522l4.36,3.27,7.03-8.2a.951.951,0,0,1,1.444,1.238Z" transform="translate(-24 -121.801)" fill="#888"/>
</svg>
