<svg id="Grupo_229" data-name="Grupo 229" xmlns="http://www.w3.org/2000/svg" xmlns:xlink="http://www.w3.org/1999/xlink" width="38.619" height="38.619" viewBox="0 0 38.619 38.619">
  <defs>
    <clipPath id="clip-path">
      <rect id="Retângulo_26" data-name="Retângulo 26" width="38.619" height="38.619" fill="#0e5edc"/>
    </clipPath>
  </defs>
  <path id="Caminho_31" data-name="Caminho 31" d="M384.683,311.075h-1.691a4.236,4.236,0,0,0-8.147,0h-1.691A1.161,1.161,0,0,0,372,312.228v2.306a2.7,2.7,0,0,0,2.69,2.69h8.455a2.7,2.7,0,0,0,2.69-2.69v-2.306a1.161,1.161,0,0,0-1.153-1.153Zm0,0" transform="translate(-365.608 -307.443)" fill="#0e5edc"/>
  <g id="Grupo_211" data-name="Grupo 211" transform="translate(0 0)">
    <g id="Grupo_210" data-name="Grupo 210" clip-path="url(#clip-path)">
      <path id="Caminho_32" data-name="Caminho 32" d="M329.906,356h-.384v1.922a4.225,4.225,0,0,1-4.228,4.228h-8.455a4.225,4.225,0,0,1-4.228-4.228V356h-.384A4.225,4.225,0,0,0,308,360.228v19.216a4.225,4.225,0,0,0,4.228,4.228h11.345l.339-1.891a4.275,4.275,0,0,1,1.168-2.26l1.229-1.23H313.765a1.153,1.153,0,1,1,0-2.306h14.6a.521.521,0,0,1,.215.031h.015l5.534-5.534V360.228A4.225,4.225,0,0,0,329.906,356Zm-1.537,17.294h-14.6a1.153,1.153,0,1,1,0-2.306h14.6a1.153,1.153,0,0,1,0,2.306Zm0-5h-14.6a1.153,1.153,0,1,1,0-2.306h14.6a1.153,1.153,0,0,1,0,2.306Zm0,0" transform="translate(-307.758 -350.832)" fill="#0e5edc"/>
      <path id="Caminho_33" data-name="Caminho 33" d="M497.592,513.743a1.153,1.153,0,0,1-1.134-1.355l.815-4.62a1.153,1.153,0,0,1,.32-.615l11.414-11.413c1.4-1.405,2.78-1.025,3.533-.272l1.9,1.9a2.692,2.692,0,0,1,0,3.8L503.026,512.59a1.138,1.138,0,0,1-.615.32l-4.62.815a1.1,1.1,0,0,1-.2.018Zm4.619-1.968h0Zm0,0" transform="translate(-478.092 -476.291)" fill="#0e5edc"/>
    </g>
  </g>
</svg>
