<svg xmlns="http://www.w3.org/2000/svg" width="38.388" height="38.388" viewBox="0 0 38.388 38.388">
  <g id="Grupo_2670" data-name="Grupo 2670" transform="translate(-308 -308)">
    <path id="Caminho_1624" data-name="Caminho 1624" d="M351.189,615.2H317.6a1.6,1.6,0,1,1,0-3.2h33.589a1.6,1.6,0,1,1,0,3.2Zm0,0" transform="translate(-7.2 -273.61)" fill="#888"/>
    <path id="Caminho_1625" data-name="Caminho 1625" d="M351.189,439.2H317.6a1.6,1.6,0,0,1,0-3.2h33.589a1.6,1.6,0,1,1,0,3.2Zm0,0" transform="translate(-7.2 -115.204)" fill="#888"/>
    <path id="Caminho_1626" data-name="Caminho 1626" d="M309.6,346.388a1.6,1.6,0,0,1-1.6-1.6V309.6a1.6,1.6,0,0,1,3.2,0v35.189a1.6,1.6,0,0,1-1.6,1.6Zm0,0" transform="translate(0 0)" fill="#888"/>
    <path id="Caminho_1627" data-name="Caminho 1627" d="M661.6,346.388a1.6,1.6,0,0,1-1.6-1.6V309.6a1.6,1.6,0,0,1,3.2,0v35.189a1.6,1.6,0,0,1-1.6,1.6Zm0,0" transform="translate(-316.811 0)" fill="#888"/>
    <path id="Caminho_1628" data-name="Caminho 1628" d="M378,516v1.2a1.2,1.2,0,1,1-2.4,0V516h-2.8a.8.8,0,0,0-.8.8v6.4a.8.8,0,0,0,.8.8h8a.8.8,0,0,0,.8-.8v-6.4a.8.8,0,0,0-.8-.8Zm0,0" transform="translate(-57.602 -187.207)" fill="#888"/>
    <path id="Caminho_1629" data-name="Caminho 1629" d="M506.8,500v1.2a1.2,1.2,0,1,1-2.4,0V500h-3.6a.8.8,0,0,0-.8.8v8a.8.8,0,0,0,.8.8h9.6a.8.8,0,0,0,.8-.8v-8a.8.8,0,0,0-.8-.8Zm0,0" transform="translate(-172.806 -172.806)" fill="#888"/>
    <path id="Caminho_1630" data-name="Caminho 1630" d="M395.6,340v1.2a1.2,1.2,0,1,1-2.4,0V340h-4.4a.8.8,0,0,0-.8.8v6.4a.8.8,0,0,0,.8.8H400a.8.8,0,0,0,.8-.8v-6.4a.8.8,0,0,0-.8-.8Zm0,0" transform="translate(-72.003 -28.801)" fill="#888"/>
  </g>
</svg>
